  <svg width="170" height="171" viewBox="0 0 170 171" fill="none" xmlns="http://www.w3.org/2000/svg">
            <circle cx="85" cy="86" r="85" fill="#F4E9FC" />
            <circle cx="85" cy="86" r="85" fill="#F4E9FC" />
            <path opacity="0.5" d="M85 170C107.543 170 129.163 161.045 145.104 145.104C161.045 129.163 170 107.543 170 85C170 62.4566 161.045 40.8365 145.104 24.8959C129.163 8.95534 107.543 3.40396e-06 85 0L85 85L85 170Z" fill="#9762DA" />
            <circle cx="85.5" cy="85.5" r="58.5" fill="#F1F3FA" />
            <path d="M71.4531 79H69.0234L69.0391 77.4453H71.4531C72.1562 77.4453 72.7448 77.2917 73.2188 76.9844C73.6979 76.6771 74.0573 76.237 74.2969 75.6641C74.5417 75.0911 74.6641 74.4089 74.6641 73.6172V73C74.6641 72.3854 74.5938 71.8411 74.4531 71.3672C74.3177 70.8932 74.1146 70.4948 73.8438 70.1719C73.5781 69.849 73.25 69.6042 72.8594 69.4375C72.474 69.2708 72.0286 69.1875 71.5234 69.1875H68.9766V67.625H71.5234C72.2786 67.625 72.9688 67.7526 73.5938 68.0078C74.2188 68.2578 74.7578 68.6198 75.2109 69.0938C75.6693 69.5677 76.0208 70.1354 76.2656 70.7969C76.5104 71.4583 76.6328 72.1979 76.6328 73.0156V73.6172C76.6328 74.4349 76.5104 75.1745 76.2656 75.8359C76.0208 76.4974 75.6693 77.0651 75.2109 77.5391C74.7526 78.0078 74.2057 78.3698 73.5703 78.625C72.9401 78.875 72.2344 79 71.4531 79ZM70.1094 67.625V79H68.1484V67.625H70.1094ZM83.1797 77.3047V73.2734C83.1797 72.9714 83.125 72.7109 83.0156 72.4922C82.9062 72.2734 82.7396 72.1042 82.5156 71.9844C82.2969 71.8646 82.0208 71.8047 81.6875 71.8047C81.3802 71.8047 81.1146 71.8568 80.8906 71.9609C80.6667 72.0651 80.4922 72.2057 80.3672 72.3828C80.2422 72.5599 80.1797 72.7604 80.1797 72.9844H78.3047C78.3047 72.651 78.3854 72.3281 78.5469 72.0156C78.7083 71.7031 78.9427 71.4245 79.25 71.1797C79.5573 70.9349 79.9245 70.7422 80.3516 70.6016C80.7786 70.4609 81.2578 70.3906 81.7891 70.3906C82.4245 70.3906 82.987 70.4974 83.4766 70.7109C83.9714 70.9245 84.3594 71.2474 84.6406 71.6797C84.9271 72.1068 85.0703 72.6432 85.0703 73.2891V77.0469C85.0703 77.4323 85.0964 77.7786 85.1484 78.0859C85.2057 78.388 85.2865 78.651 85.3906 78.875V79H83.4609C83.3724 78.7969 83.3021 78.5391 83.25 78.2266C83.2031 77.9089 83.1797 77.6016 83.1797 77.3047ZM83.4531 73.8594L83.4688 75.0234H82.1172C81.7682 75.0234 81.4609 75.0573 81.1953 75.125C80.9297 75.1875 80.7083 75.2812 80.5312 75.4062C80.3542 75.5312 80.2214 75.6823 80.1328 75.8594C80.0443 76.0365 80 76.237 80 76.4609C80 76.6849 80.0521 76.8906 80.1562 77.0781C80.2604 77.2604 80.4115 77.4036 80.6094 77.5078C80.8125 77.612 81.0573 77.6641 81.3438 77.6641C81.7292 77.6641 82.0651 77.5859 82.3516 77.4297C82.6432 77.2682 82.8724 77.0729 83.0391 76.8438C83.2057 76.6094 83.2943 76.388 83.3047 76.1797L83.9141 77.0156C83.8516 77.2292 83.7448 77.4583 83.5938 77.7031C83.4427 77.9479 83.2448 78.1823 83 78.4062C82.7604 78.625 82.4714 78.8047 82.1328 78.9453C81.7995 79.0859 81.4141 79.1562 80.9766 79.1562C80.4245 79.1562 79.9323 79.0469 79.5 78.8281C79.0677 78.6042 78.7292 78.3047 78.4844 77.9297C78.2396 77.5495 78.1172 77.1198 78.1172 76.6406C78.1172 76.1927 78.2005 75.7969 78.3672 75.4531C78.5391 75.1042 78.7891 74.8125 79.1172 74.5781C79.4505 74.3438 79.8568 74.1667 80.3359 74.0469C80.8151 73.9219 81.362 73.8594 81.9766 73.8594H83.4531ZM90.9141 70.5469V71.9219H86.1484V70.5469H90.9141ZM87.5234 68.4766H89.4062V76.6641C89.4062 76.9245 89.4427 77.125 89.5156 77.2656C89.5938 77.401 89.7005 77.4922 89.8359 77.5391C89.9714 77.5859 90.1302 77.6094 90.3125 77.6094C90.4427 77.6094 90.5677 77.6016 90.6875 77.5859C90.8073 77.5703 90.9036 77.5547 90.9766 77.5391L90.9844 78.9766C90.8281 79.0234 90.6458 79.0651 90.4375 79.1016C90.2344 79.138 90 79.1562 89.7344 79.1562C89.3021 79.1562 88.9193 79.0807 88.5859 78.9297C88.2526 78.7734 87.9922 78.5208 87.8047 78.1719C87.6172 77.8229 87.5234 77.3594 87.5234 76.7812V68.4766ZM97.1328 77.3047V73.2734C97.1328 72.9714 97.0781 72.7109 96.9688 72.4922C96.8594 72.2734 96.6927 72.1042 96.4688 71.9844C96.25 71.8646 95.974 71.8047 95.6406 71.8047C95.3333 71.8047 95.0677 71.8568 94.8438 71.9609C94.6198 72.0651 94.4453 72.2057 94.3203 72.3828C94.1953 72.5599 94.1328 72.7604 94.1328 72.9844H92.2578C92.2578 72.651 92.3385 72.3281 92.5 72.0156C92.6615 71.7031 92.8958 71.4245 93.2031 71.1797C93.5104 70.9349 93.8776 70.7422 94.3047 70.6016C94.7318 70.4609 95.2109 70.3906 95.7422 70.3906C96.3776 70.3906 96.9401 70.4974 97.4297 70.7109C97.9245 70.9245 98.3125 71.2474 98.5938 71.6797C98.8802 72.1068 99.0234 72.6432 99.0234 73.2891V77.0469C99.0234 77.4323 99.0495 77.7786 99.1016 78.0859C99.1589 78.388 99.2396 78.651 99.3438 78.875V79H97.4141C97.3255 78.7969 97.2552 78.5391 97.2031 78.2266C97.1562 77.9089 97.1328 77.6016 97.1328 77.3047ZM97.4062 73.8594L97.4219 75.0234H96.0703C95.7214 75.0234 95.4141 75.0573 95.1484 75.125C94.8828 75.1875 94.6615 75.2812 94.4844 75.4062C94.3073 75.5312 94.1745 75.6823 94.0859 75.8594C93.9974 76.0365 93.9531 76.237 93.9531 76.4609C93.9531 76.6849 94.0052 76.8906 94.1094 77.0781C94.2135 77.2604 94.3646 77.4036 94.5625 77.5078C94.7656 77.612 95.0104 77.6641 95.2969 77.6641C95.6823 77.6641 96.0182 77.5859 96.3047 77.4297C96.5964 77.2682 96.8255 77.0729 96.9922 76.8438C97.1589 76.6094 97.2474 76.388 97.2578 76.1797L97.8672 77.0156C97.8047 77.2292 97.6979 77.4583 97.5469 77.7031C97.3958 77.9479 97.1979 78.1823 96.9531 78.4062C96.7135 78.625 96.4245 78.8047 96.0859 78.9453C95.7526 79.0859 95.3672 79.1562 94.9297 79.1562C94.3776 79.1562 93.8854 79.0469 93.4531 78.8281C93.0208 78.6042 92.6823 78.3047 92.4375 77.9297C92.1927 77.5495 92.0703 77.1198 92.0703 76.6406C92.0703 76.1927 92.1536 75.7969 92.3203 75.4531C92.4922 75.1042 92.7422 74.8125 93.0703 74.5781C93.4036 74.3438 93.8099 74.1667 94.2891 74.0469C94.7682 73.9219 95.3151 73.8594 95.9297 73.8594H97.4062ZM63.6641 96.7109C63.6641 96.5234 63.6172 96.3542 63.5234 96.2031C63.4297 96.0469 63.25 95.9062 62.9844 95.7812C62.724 95.6562 62.3385 95.5417 61.8281 95.4375C61.3802 95.3385 60.9688 95.2214 60.5938 95.0859C60.224 94.9453 59.9062 94.776 59.6406 94.5781C59.375 94.3802 59.1693 94.1458 59.0234 93.875C58.8776 93.6042 58.8047 93.2917 58.8047 92.9375C58.8047 92.5938 58.8802 92.2682 59.0312 91.9609C59.1823 91.6536 59.3984 91.3828 59.6797 91.1484C59.9609 90.9141 60.3021 90.7292 60.7031 90.5938C61.1094 90.4583 61.5625 90.3906 62.0625 90.3906C62.7708 90.3906 63.3776 90.5104 63.8828 90.75C64.3932 90.9844 64.7839 91.3047 65.0547 91.7109C65.3255 92.112 65.4609 92.5651 65.4609 93.0703H63.5781C63.5781 92.8464 63.5208 92.638 63.4062 92.4453C63.2969 92.2474 63.1302 92.0885 62.9062 91.9688C62.6823 91.8438 62.401 91.7812 62.0625 91.7812C61.7396 91.7812 61.4714 91.8333 61.2578 91.9375C61.0495 92.0365 60.8932 92.1667 60.7891 92.3281C60.6901 92.4896 60.6406 92.6667 60.6406 92.8594C60.6406 93 60.6667 93.1276 60.7188 93.2422C60.776 93.3516 60.8698 93.4531 61 93.5469C61.1302 93.6354 61.3073 93.7188 61.5312 93.7969C61.7604 93.875 62.0469 93.9505 62.3906 94.0234C63.0365 94.1589 63.5911 94.3333 64.0547 94.5469C64.5234 94.7552 64.8828 95.026 65.1328 95.3594C65.3828 95.6875 65.5078 96.1042 65.5078 96.6094C65.5078 96.9844 65.4271 97.3281 65.2656 97.6406C65.1094 97.9479 64.8802 98.2161 64.5781 98.4453C64.276 98.6693 63.9141 98.8438 63.4922 98.9688C63.0755 99.0938 62.6068 99.1562 62.0859 99.1562C61.3203 99.1562 60.6719 99.0208 60.1406 98.75C59.6094 98.474 59.2057 98.1224 58.9297 97.6953C58.6589 97.263 58.5234 96.8151 58.5234 96.3516H60.3438C60.3646 96.7005 60.4609 96.9792 60.6328 97.1875C60.8099 97.3906 61.0286 97.5391 61.2891 97.6328C61.5547 97.7214 61.8281 97.7656 62.1094 97.7656C62.4479 97.7656 62.7318 97.7214 62.9609 97.6328C63.1901 97.5391 63.3646 97.4141 63.4844 97.2578C63.6042 97.0964 63.6641 96.9141 63.6641 96.7109ZM70.6094 97.6562C70.9167 97.6562 71.1927 97.5964 71.4375 97.4766C71.6875 97.3516 71.888 97.1797 72.0391 96.9609C72.1953 96.7422 72.2812 96.4896 72.2969 96.2031H74.0703C74.0599 96.75 73.8984 97.2474 73.5859 97.6953C73.2734 98.1432 72.8594 98.5 72.3438 98.7656C71.8281 99.026 71.2578 99.1562 70.6328 99.1562C69.987 99.1562 69.4245 99.0469 68.9453 98.8281C68.4661 98.6042 68.0677 98.2969 67.75 97.9062C67.4323 97.5156 67.1927 97.0651 67.0312 96.5547C66.875 96.0443 66.7969 95.4974 66.7969 94.9141V94.6406C66.7969 94.0573 66.875 93.5104 67.0312 93C67.1927 92.4844 67.4323 92.0312 67.75 91.6406C68.0677 91.25 68.4661 90.9453 68.9453 90.7266C69.4245 90.5026 69.9844 90.3906 70.625 90.3906C71.3021 90.3906 71.8958 90.526 72.4062 90.7969C72.9167 91.0625 73.3177 91.4349 73.6094 91.9141C73.9062 92.388 74.0599 92.9401 74.0703 93.5703H72.2969C72.2812 93.2578 72.2031 92.9766 72.0625 92.7266C71.9271 92.4714 71.7344 92.2682 71.4844 92.1172C71.2396 91.9661 70.9453 91.8906 70.6016 91.8906C70.2214 91.8906 69.9062 91.9688 69.6562 92.125C69.4062 92.276 69.2109 92.4844 69.0703 92.75C68.9297 93.0104 68.8281 93.3047 68.7656 93.6328C68.7083 93.9557 68.6797 94.2917 68.6797 94.6406V94.9141C68.6797 95.263 68.7083 95.6016 68.7656 95.9297C68.8229 96.2578 68.9219 96.5521 69.0625 96.8125C69.2083 97.0677 69.4062 97.2734 69.6562 97.4297C69.9062 97.5807 70.224 97.6562 70.6094 97.6562ZM77.5312 90.5469V99H75.6406V90.5469H77.5312ZM75.5156 88.3281C75.5156 88.0417 75.6094 87.8047 75.7969 87.6172C75.9896 87.4245 76.2552 87.3281 76.5938 87.3281C76.9271 87.3281 77.1901 87.4245 77.3828 87.6172C77.5755 87.8047 77.6719 88.0417 77.6719 88.3281C77.6719 88.6094 77.5755 88.8438 77.3828 89.0312C77.1901 89.2188 76.9271 89.3125 76.5938 89.3125C76.2552 89.3125 75.9896 89.2188 75.7969 89.0312C75.6094 88.8438 75.5156 88.6094 75.5156 88.3281ZM83.3203 99.1562C82.6953 99.1562 82.1302 99.0547 81.625 98.8516C81.125 98.6432 80.6979 98.3542 80.3438 97.9844C79.9948 97.6146 79.7266 97.1797 79.5391 96.6797C79.3516 96.1797 79.2578 95.6406 79.2578 95.0625V94.75C79.2578 94.0885 79.3542 93.4896 79.5469 92.9531C79.7396 92.4167 80.0078 91.9583 80.3516 91.5781C80.6953 91.1927 81.1016 90.8984 81.5703 90.6953C82.0391 90.4922 82.5469 90.3906 83.0938 90.3906C83.6979 90.3906 84.2266 90.4922 84.6797 90.6953C85.1328 90.8984 85.5078 91.1849 85.8047 91.5547C86.1068 91.9193 86.3307 92.3542 86.4766 92.8594C86.6276 93.3646 86.7031 93.9219 86.7031 94.5312V95.3359H80.1719V93.9844H84.8438V93.8359C84.8333 93.4974 84.7656 93.1797 84.6406 92.8828C84.5208 92.5859 84.3359 92.3464 84.0859 92.1641C83.8359 91.9818 83.5026 91.8906 83.0859 91.8906C82.7734 91.8906 82.4948 91.9583 82.25 92.0938C82.0104 92.224 81.8099 92.4141 81.6484 92.6641C81.487 92.9141 81.362 93.2161 81.2734 93.5703C81.1901 93.9193 81.1484 94.3125 81.1484 94.75V95.0625C81.1484 95.4323 81.1979 95.776 81.2969 96.0938C81.401 96.4062 81.5521 96.6797 81.75 96.9141C81.9479 97.1484 82.1875 97.3333 82.4688 97.4688C82.75 97.599 83.0703 97.6641 83.4297 97.6641C83.8828 97.6641 84.2865 97.5729 84.6406 97.3906C84.9948 97.2083 85.3021 96.9505 85.5625 96.6172L86.5547 97.5781C86.3724 97.8438 86.1354 98.099 85.8438 98.3438C85.5521 98.5833 85.1953 98.7786 84.7734 98.9297C84.3568 99.0807 83.8724 99.1562 83.3203 99.1562ZM90.0391 92.3516V99H88.1562V90.5469H89.9297L90.0391 92.3516ZM89.7031 94.4609L89.0938 94.4531C89.099 93.8542 89.1823 93.3047 89.3438 92.8047C89.5104 92.3047 89.7396 91.875 90.0312 91.5156C90.3281 91.1562 90.6823 90.8802 91.0938 90.6875C91.5052 90.4896 91.9635 90.3906 92.4688 90.3906C92.875 90.3906 93.2422 90.4479 93.5703 90.5625C93.9036 90.6719 94.1875 90.8516 94.4219 91.1016C94.6615 91.3516 94.8438 91.6771 94.9688 92.0781C95.0938 92.474 95.1562 92.9609 95.1562 93.5391V99H93.2656V93.5312C93.2656 93.125 93.2057 92.8047 93.0859 92.5703C92.9714 92.3307 92.8021 92.1615 92.5781 92.0625C92.3594 91.9583 92.0859 91.9062 91.7578 91.9062C91.4349 91.9062 91.1458 91.974 90.8906 92.1094C90.6354 92.2448 90.4193 92.4297 90.2422 92.6641C90.0703 92.8984 89.9375 93.1693 89.8438 93.4766C89.75 93.7839 89.7031 94.112 89.7031 94.4609ZM100.531 97.6562C100.839 97.6562 101.115 97.5964 101.359 97.4766C101.609 97.3516 101.81 97.1797 101.961 96.9609C102.117 96.7422 102.203 96.4896 102.219 96.2031H103.992C103.982 96.75 103.82 97.2474 103.508 97.6953C103.195 98.1432 102.781 98.5 102.266 98.7656C101.75 99.026 101.18 99.1562 100.555 99.1562C99.9089 99.1562 99.3464 99.0469 98.8672 98.8281C98.388 98.6042 97.9896 98.2969 97.6719 97.9062C97.3542 97.5156 97.1146 97.0651 96.9531 96.5547C96.7969 96.0443 96.7188 95.4974 96.7188 94.9141V94.6406C96.7188 94.0573 96.7969 93.5104 96.9531 93C97.1146 92.4844 97.3542 92.0312 97.6719 91.6406C97.9896 91.25 98.388 90.9453 98.8672 90.7266C99.3464 90.5026 99.9062 90.3906 100.547 90.3906C101.224 90.3906 101.818 90.526 102.328 90.7969C102.839 91.0625 103.24 91.4349 103.531 91.9141C103.828 92.388 103.982 92.9401 103.992 93.5703H102.219C102.203 93.2578 102.125 92.9766 101.984 92.7266C101.849 92.4714 101.656 92.2682 101.406 92.1172C101.161 91.9661 100.867 91.8906 100.523 91.8906C100.143 91.8906 99.8281 91.9688 99.5781 92.125C99.3281 92.276 99.1328 92.4844 98.9922 92.75C98.8516 93.0104 98.75 93.3047 98.6875 93.6328C98.6302 93.9557 98.6016 94.2917 98.6016 94.6406V94.9141C98.6016 95.263 98.6302 95.6016 98.6875 95.9297C98.7448 96.2578 98.8438 96.5521 98.9844 96.8125C99.1302 97.0677 99.3281 97.2734 99.5781 97.4297C99.8281 97.5807 100.146 97.6562 100.531 97.6562ZM109.164 99.1562C108.539 99.1562 107.974 99.0547 107.469 98.8516C106.969 98.6432 106.542 98.3542 106.188 97.9844C105.839 97.6146 105.57 97.1797 105.383 96.6797C105.195 96.1797 105.102 95.6406 105.102 95.0625V94.75C105.102 94.0885 105.198 93.4896 105.391 92.9531C105.583 92.4167 105.852 91.9583 106.195 91.5781C106.539 91.1927 106.945 90.8984 107.414 90.6953C107.883 90.4922 108.391 90.3906 108.938 90.3906C109.542 90.3906 110.07 90.4922 110.523 90.6953C110.977 90.8984 111.352 91.1849 111.648 91.5547C111.951 91.9193 112.174 92.3542 112.32 92.8594C112.471 93.3646 112.547 93.9219 112.547 94.5312V95.3359H106.016V93.9844H110.688V93.8359C110.677 93.4974 110.609 93.1797 110.484 92.8828C110.365 92.5859 110.18 92.3464 109.93 92.1641C109.68 91.9818 109.346 91.8906 108.93 91.8906C108.617 91.8906 108.339 91.9583 108.094 92.0938C107.854 92.224 107.654 92.4141 107.492 92.6641C107.331 92.9141 107.206 93.2161 107.117 93.5703C107.034 93.9193 106.992 94.3125 106.992 94.75V95.0625C106.992 95.4323 107.042 95.776 107.141 96.0938C107.245 96.4062 107.396 96.6797 107.594 96.9141C107.792 97.1484 108.031 97.3333 108.312 97.4688C108.594 97.599 108.914 97.6641 109.273 97.6641C109.727 97.6641 110.13 97.5729 110.484 97.3906C110.839 97.2083 111.146 96.9505 111.406 96.6172L112.398 97.5781C112.216 97.8438 111.979 98.099 111.688 98.3438C111.396 98.5833 111.039 98.7786 110.617 98.9297C110.201 99.0807 109.716 99.1562 109.164 99.1562Z" fill="#4A4646" />
          </svg>