<svg width="25" height="25"  viewBox="0 0 35 35" fill="none" xmlns="http://www.w3.org/2000/svg">
                                    <path d="M17.5 0C14.0388 0 10.6554 1.02636 7.77753 2.94928C4.89967 4.87221 2.65665 7.60533 1.33212 10.803C0.00758244 14.0007 -0.338976 17.5194 0.336265 20.9141C1.01151 24.3087 2.67822 27.4269 5.12564 29.8744C7.57306 32.3218 10.6913 33.9885 14.0859 34.6637C17.4806 35.339 20.9993 34.9924 24.197 33.6679C27.3947 32.3434 30.1278 30.1003 32.0507 27.2225C33.9736 24.3446 35 20.9612 35 17.5C34.9949 12.8603 33.1495 8.41209 29.8687 5.13131C26.5879 1.85054 22.1397 0.00514666 17.5 0ZM19.4444 30.9701V22.037H22.6852C23.2009 22.037 23.6955 21.8322 24.0601 21.4675C24.4248 21.1029 24.6296 20.6083 24.6296 20.0926C24.6296 19.5769 24.4248 19.0823 24.0601 18.7177C23.6955 18.353 23.2009 18.1481 22.6852 18.1481H19.4444V14.9074C19.4444 14.3917 19.6493 13.8971 20.014 13.5325C20.3786 13.1678 20.8732 12.963 21.3889 12.963H23.9815C24.4972 12.963 24.9918 12.7581 25.3564 12.3934C25.7211 12.0288 25.9259 11.5342 25.9259 11.0185C25.9259 10.5028 25.7211 10.0082 25.3564 9.64359C24.9918 9.27893 24.4972 9.07407 23.9815 9.07407H21.3889C19.8418 9.07407 18.3581 9.68865 17.2641 10.7826C16.1701 11.8766 15.5556 13.3603 15.5556 14.9074V18.1481H12.3148C11.7991 18.1481 11.3045 18.353 10.9399 18.7177C10.5752 19.0823 10.3704 19.5769 10.3704 20.0926C10.3704 20.6083 10.5752 21.1029 10.9399 21.4675C11.3045 21.8322 11.7991 22.037 12.3148 22.037H15.5556V30.9701C12.1497 30.4785 9.05644 28.7151 6.89832 26.0348C4.7402 23.3545 3.67741 19.9562 3.92384 16.5239C4.17027 13.0916 5.70763 9.87999 8.22652 7.53546C10.7454 5.19094 14.0588 3.88752 17.5 3.88752C20.9412 3.88752 24.2546 5.19094 26.7735 7.53546C29.2924 9.87999 30.8297 13.0916 31.0762 16.5239C31.3226 19.9562 30.2598 23.3545 28.1017 26.0348C25.9436 28.7151 22.8503 30.4785 19.4444 30.9701Z" fill="#4A4646" />
                                </svg>