 <svg width="30" height="30"  viewBox="0 0 27 28" fill="red" xmlns="http://www.w3.org/2000/svg">
                                    <path d="M19.7754 7.75195C19.084 7.03711 18.2402 6.48633 17.2441 6.09961C16.248 5.70117 15.1816 5.50195 14.0449 5.50195C12.9199 5.50195 11.9004 5.69531 10.9863 6.08203C10.0723 6.46875 9.28125 7.02539 8.61328 7.75195C7.95703 8.4668 7.44727 9.32227 7.08398 10.3184C6.73242 11.3145 6.55664 12.4336 6.55664 13.6758C6.55664 14.9297 6.74414 16.0781 7.11914 17.1211C7.49414 18.1523 8.02148 19.043 8.70117 19.793C9.39258 20.5312 10.2129 21.1055 11.1621 21.5156C12.1113 21.9258 13.166 22.1309 14.3262 22.1309C15.2402 22.1309 16.0723 22.002 16.8223 21.7441C17.584 21.4746 18.252 21.0938 18.8262 20.6016C19.4121 20.0977 19.8984 19.4883 20.2852 18.7734C20.6836 18.0586 20.9707 17.25 21.1465 16.3477H14.1504V11.6367H26.5781L26.7539 13.9922C26.7539 15.9961 26.4492 17.8301 25.8398 19.4941C25.2305 21.1465 24.3633 22.5762 23.2383 23.7832C22.125 24.9785 20.7949 25.9043 19.248 26.5605C17.7012 27.2051 15.9844 27.5273 14.0977 27.5273C12.1406 27.5273 10.3184 27.1816 8.63086 26.4902C6.95508 25.7871 5.48438 24.8145 4.21875 23.5723C2.96484 22.3301 1.98633 20.877 1.2832 19.2129C0.580078 17.5371 0.228516 15.7207 0.228516 13.7637C0.228516 11.8418 0.574219 10.0547 1.26562 8.40234C1.95703 6.73828 2.91797 5.28516 4.14844 4.04297C5.39062 2.80078 6.83789 1.83398 8.49023 1.14258C10.1543 0.451172 11.9531 0.105469 13.8867 0.105469C15.7031 0.105469 17.4668 0.421875 19.1777 1.05469C20.8887 1.6875 22.4238 2.58984 23.7832 3.76172L19.7754 7.75195Z" fill="#4A4646" />
                                </svg>