 <svg width="140" height="133" viewBox="0 0 140 133" fill="none" xmlns="http://www.w3.org/2000/svg">
                                    <g filter="url(#filter0_d_0_1)">
                                        <path d="M136 62.5C136 97.0178 106.451 125 70 125C33.5492 125 4 97.0178 4 62.5C4 27.9822 33.5492 0 70 0C106.451 0 136 27.9822 136 62.5Z" fill="url(#paint0_linear_0_1)" shape-rendering="crispEdges" />
                                        <path d="M135.5 62.5C135.5 96.7163 106.201 124.5 70 124.5C33.7993 124.5 4.5 96.7163 4.5 62.5C4.5 28.2837 33.7993 0.5 70 0.5C106.201 0.5 135.5 28.2837 135.5 62.5Z" stroke="#FEFBFB" shape-rendering="crispEdges" />
                                    </g>
                                    <g filter="url(#filter1_b_0_1)">
                                        <path d="M42.8467 27.76C41.7801 27.76 40.9534 27.4667 40.3667 26.88C39.8067 26.2667 39.5267 25.5333 39.5267 24.68C39.5267 24.4667 39.5534 24.2133 39.6067 23.92C39.6867 23.6267 39.7801 23.3733 39.8867 23.16C40.2334 23.32 40.7401 23.44 41.4067 23.52C42.1001 23.5733 42.9001 23.6 43.8067 23.6C45.1667 23.6 46.7001 23.5467 48.4067 23.44C50.1401 23.3067 51.7934 23.1733 53.3667 23.04C54.9401 22.9067 56.3267 22.7867 57.5267 22.68C58.7267 22.5467 59.5001 22.48 59.8467 22.48C60.8334 22.48 61.5401 22.8533 61.9667 23.6C62.4201 24.32 62.7534 25.2933 62.9667 26.52C62.2734 26.4667 61.5801 26.4267 60.8867 26.4C60.2201 26.3467 59.6467 26.32 59.1667 26.32C58.3134 26.32 57.4467 26.3467 56.5667 26.4C55.7134 26.4533 54.8467 26.5333 53.9667 26.64C53.5934 27.4133 53.1801 28.3333 52.7267 29.4C52.2734 30.44 51.8201 31.5333 51.3667 32.68C50.9401 33.8267 50.5267 34.9733 50.1267 36.12C49.7267 37.24 49.3801 38.2533 49.0867 39.16C48.5001 40.92 47.9801 42.5467 47.5267 44.04C47.1001 45.5333 46.7134 46.9333 46.3667 48.24C46.0467 49.52 45.7667 50.7467 45.5267 51.92C45.2867 53.0933 45.0734 54.24 44.8867 55.36C43.1001 55.0933 41.6067 53.9733 40.4067 52C40.6201 51.1733 40.8734 50.28 41.1667 49.32C41.4867 48.3333 41.8467 47.2267 42.2467 46C42.6734 44.7467 43.1667 43.3333 43.7267 41.76C44.2867 40.1867 44.9267 38.4 45.6467 36.4C45.9134 35.6533 46.1934 34.88 46.4867 34.08C46.7801 33.2533 47.0601 32.44 47.3267 31.64C47.6201 30.84 47.8734 30.0667 48.0867 29.32C48.3267 28.5733 48.5267 27.8933 48.6867 27.28C47.5667 27.4133 46.5001 27.5333 45.4867 27.64C44.5001 27.72 43.6201 27.76 42.8467 27.76ZM67.5511 35.84C67.8178 35.84 68.1244 35.8933 68.4711 36C68.8444 36.08 69.1778 36.2 69.4711 36.36C69.7644 36.4933 70.0044 36.64 70.1911 36.8C70.4044 36.96 70.5111 37.1067 70.5111 37.24C69.9778 38.36 69.4844 39.4933 69.0311 40.64C68.5778 41.76 68.1911 42.84 67.8711 43.88C67.5511 44.92 67.2978 45.8933 67.1111 46.8C66.9511 47.7067 66.8711 48.4933 66.8711 49.16C66.8711 49.9067 66.9511 50.5333 67.1111 51.04C67.2711 51.52 67.5378 51.8667 67.9111 52.08C67.5911 52.2933 67.1778 52.4667 66.6711 52.6C66.1644 52.7333 65.7111 52.8 65.3111 52.8C63.8711 52.8 63.1511 51.8133 63.1511 49.84C63.1511 48.32 63.6578 46.24 64.6711 43.6C64.1378 44.8267 63.5244 45.9867 62.8311 47.08C62.1378 48.1467 61.4311 49.0933 60.7111 49.92C59.9911 50.7467 59.2578 51.4267 58.5111 51.96C57.7911 52.4667 57.1244 52.7733 56.5111 52.88C55.5244 52.8267 54.7244 52.36 54.1111 51.48C53.4978 50.5733 53.1911 49.4267 53.1911 48.04C53.1911 46.5467 53.5111 44.9733 54.1511 43.32C54.7911 41.6667 55.6044 40.1333 56.5911 38.72C57.6044 37.3067 58.6978 36.1333 59.8711 35.2C61.0444 34.24 62.1778 33.7333 63.2711 33.68C63.5378 33.76 63.8311 33.92 64.1511 34.16C64.4978 34.4 64.8178 34.68 65.1111 35C65.4311 35.32 65.6978 35.6533 65.9111 36C66.1244 36.32 66.2444 36.6 66.2711 36.84C65.2044 37 64.0978 37.52 62.9511 38.4C61.8311 39.28 60.8044 40.3467 59.8711 41.6C58.9644 42.8267 58.2178 44.1467 57.6311 45.56C57.0444 46.9733 56.7511 48.2933 56.7511 49.52C56.7511 50.0267 56.9378 50.3467 57.3111 50.48C58.0844 50.32 58.9778 49.6667 59.9911 48.52C61.0044 47.3467 62.2311 45.5467 63.6711 43.12C63.9378 42.64 64.2311 42.1067 64.5511 41.52C64.8978 40.9333 65.2444 40.32 65.5911 39.68C65.9378 39.04 66.2711 38.4 66.5911 37.76C66.9378 37.0933 67.2578 36.4533 67.5511 35.84ZM86.3402 36.08C86.3135 36.5867 86.2202 37.12 86.0602 37.68C85.9268 38.2133 85.7535 38.7067 85.5402 39.16C85.3268 39.5867 85.1002 39.9467 84.8602 40.24C84.6202 40.5333 84.3935 40.68 84.1802 40.68C83.8868 40.6533 83.7135 40.4533 83.6602 40.08C83.6602 40 83.6868 39.88 83.7402 39.72C83.8202 39.5333 83.9002 39.3333 83.9802 39.12C84.0602 38.9067 84.1268 38.6933 84.1802 38.48C84.2602 38.2667 84.3002 38.08 84.3002 37.92C84.3002 37.5467 84.2068 37.24 84.0202 37C83.8602 36.7333 83.6335 36.6 83.3402 36.6C82.2735 36.6 81.4602 37.2667 80.9002 38.6C80.3402 39.9333 80.0602 41.8933 80.0602 44.48C80.0602 44.7467 80.0735 44.9067 80.1002 44.96C80.6602 44.9333 81.1535 44.92 81.5802 44.92C82.0335 44.8933 82.4735 44.88 82.9002 44.88C82.9268 44.9333 82.9402 45.04 82.9402 45.2C82.9402 45.44 82.8868 45.6133 82.7802 45.72C82.1668 45.8533 81.6735 45.9733 81.3002 46.08C80.9535 46.16 80.6868 46.24 80.5002 46.32C80.3135 46.4 80.1935 46.4933 80.1402 46.6C80.1135 46.68 80.1002 46.8 80.1002 46.96C80.1002 47.1733 80.1002 47.3867 80.1002 47.6C80.1268 47.8133 80.1402 48.08 80.1402 48.4C80.1402 50.64 79.5268 52.44 78.3002 53.8C77.1002 55.16 75.4202 55.9467 73.2602 56.16C72.8868 56.1333 72.5002 56.0267 72.1002 55.84C71.7002 55.6533 71.3135 55.4133 70.9402 55.12C70.5935 54.8267 70.2868 54.4933 70.0202 54.12C69.7535 53.7733 69.5668 53.4133 69.4602 53.04C69.4602 52.0267 69.6735 51.0667 70.1002 50.16C70.5268 49.2267 71.1002 48.4133 71.8202 47.72C72.5668 47 73.4335 46.4267 74.4202 46C75.4335 45.5467 76.5268 45.28 77.7002 45.2C77.7002 44.5333 77.6335 43.88 77.5002 43.24C77.3668 42.6 77.2202 41.9867 77.0602 41.4C76.9268 40.7867 76.7935 40.2 76.6602 39.64C76.5268 39.0533 76.4602 38.48 76.4602 37.92C76.4602 37.2 76.6068 36.4933 76.9002 35.8C77.1935 35.08 77.5802 34.4267 78.0602 33.84C78.5402 33.2267 79.1002 32.7067 79.7402 32.28C80.3802 31.8533 81.0468 31.56 81.7402 31.4C82.0335 31.48 82.4202 31.72 82.9002 32.12C83.4068 32.4933 83.9002 32.92 84.3802 33.4C84.8602 33.88 85.2868 34.3733 85.6602 34.88C86.0335 35.36 86.2602 35.76 86.3402 36.08ZM73.1402 54.32C73.7802 54.0533 74.3802 53.6667 74.9402 53.16C75.5268 52.6533 76.0335 52.08 76.4602 51.44C76.8868 50.8 77.2202 50.12 77.4602 49.4C77.7268 48.68 77.8602 47.9733 77.8602 47.28C77.3268 47.36 76.7402 47.6133 76.1002 48.04C75.4602 48.44 74.8602 48.9333 74.3002 49.52C73.7402 50.08 73.2735 50.6667 72.9002 51.28C72.5268 51.8933 72.3402 52.4267 72.3402 52.88C72.3402 53.4667 72.6068 53.9467 73.1402 54.32ZM86.4483 48.24C86.4483 47.28 86.6883 45.9467 87.1683 44.24C87.6749 42.5333 88.3283 40.6667 89.1283 38.64C89.9283 36.6133 90.8349 34.52 91.8483 32.36C92.8616 30.2 93.8749 28.1867 94.8883 26.32C95.9283 24.4533 96.9149 22.84 97.8483 21.48C98.8083 20.12 99.6216 19.2 100.288 18.72C100.662 18.7467 101.062 18.9067 101.488 19.2C101.942 19.4933 102.355 19.8533 102.728 20.28C103.102 20.68 103.408 21.1067 103.648 21.56C103.915 22.0133 104.048 22.4267 104.048 22.8C102.848 23.76 101.622 25 100.368 26.52C99.1416 28.0133 97.9683 29.6667 96.8483 31.48C95.7283 33.2667 94.6883 35.1733 93.7283 37.2C92.7949 39.2 92.0083 41.1733 91.3683 43.12C92.2216 41.6533 93.1149 40.32 94.0483 39.12C94.9816 37.92 95.9149 36.8933 96.8483 36.04C97.7816 35.1867 98.6883 34.5333 99.5683 34.08C100.475 33.6 101.328 33.3467 102.128 33.32C103.302 34.1733 103.888 35.3067 103.888 36.72C103.888 37.5733 103.715 38.44 103.368 39.32C103.022 40.1733 102.555 40.9733 101.968 41.72C101.408 42.44 100.755 43.0667 100.008 43.6C99.2883 44.1067 98.5283 44.44 97.7283 44.6C97.9949 45.5333 98.3283 46.48 98.7283 47.44C99.1549 48.4 99.6483 49.3333 100.208 50.24C100.795 51.1467 101.448 51.9867 102.168 52.76C102.915 53.5333 103.755 54.1867 104.688 54.72C104.555 54.9867 104.355 55.2533 104.088 55.52C103.822 55.7867 103.502 56.0133 103.128 56.2C102.755 56.4133 102.342 56.5733 101.888 56.68C101.462 56.8133 101.035 56.88 100.608 56.88C99.8883 56.88 99.2083 56.52 98.5683 55.8C97.9549 55.08 97.3949 54.04 96.8883 52.68C96.4883 51.5867 96.1016 50.28 95.7283 48.76C95.3549 47.24 95.0216 45.6533 94.7283 44C95.1016 43.76 95.5683 43.4133 96.1283 42.96C96.6883 42.48 97.2749 41.9333 97.8883 41.32C100.235 39.0533 101.408 37.0933 101.408 35.44C101.408 35.2267 101.262 35.12 100.968 35.12C100.435 35.1467 99.8083 35.4 99.0883 35.88C98.3683 36.36 97.5949 37.0267 96.7683 37.88C95.9683 38.7333 95.1416 39.7333 94.2883 40.88C93.4616 42.0267 92.6616 43.2667 91.8883 44.6C91.5683 45.1333 91.2749 45.7467 91.0083 46.44C90.7416 47.1333 90.5016 47.8533 90.2883 48.6C90.1016 49.32 89.9549 50.04 89.8483 50.76C89.7416 51.48 89.6883 52.1467 89.6883 52.76C89.6883 53.1333 89.7283 53.44 89.8083 53.68C88.9816 53.6 88.4749 53.3867 88.2883 53.04C88.0749 52.72 87.8883 52.4533 87.7283 52.24C87.5949 52.0533 87.4483 51.8933 87.2883 51.76C87.0483 51.5733 86.8483 51.1733 86.6883 50.56C86.5283 49.9467 86.4483 49.1733 86.4483 48.24ZM32.9975 97.28C34.2242 96.4533 35.4242 95.4 36.5975 94.12C37.7708 92.8133 38.8375 91.4133 39.7975 89.92C40.7575 88.4 41.5708 86.8267 42.2375 85.2C42.9042 83.5733 43.3575 82.0133 43.5975 80.52C43.5975 80.2 43.4242 79.9867 43.0775 79.88C42.7042 79.88 42.1842 80.2133 41.5175 80.88C40.8775 81.52 40.1575 82.3467 39.3575 83.36C38.5842 84.3733 37.7842 85.5067 36.9575 86.76C36.1575 88.0133 35.4242 89.2667 34.7575 90.52C34.0908 91.7467 33.5175 92.9067 33.0375 94C32.5842 95.0667 32.3308 95.9333 32.2775 96.6C32.0108 96.6 31.7842 96.3333 31.5975 95.8C31.5442 95.6667 31.4508 95.5333 31.3175 95.4C31.1842 95.24 30.9708 95.0533 30.6775 94.84C30.5442 94.7333 30.4108 94.6133 30.2775 94.48C30.1442 94.32 30.0508 94.1867 29.9975 94.08C29.8908 93.8667 29.8375 93.52 29.8375 93.04C29.8375 91.4667 30.0375 89.6933 30.4375 87.72C30.8375 85.7467 31.3575 83.7333 31.9975 81.68C32.6642 79.6267 33.4375 77.6133 34.3175 75.64C35.1975 73.64 36.1042 71.8133 37.0375 70.16C37.9975 68.5067 38.9575 67.1067 39.9175 65.96C40.8775 64.8133 41.7842 64.0533 42.6375 63.68C42.9042 63.76 43.2242 63.8933 43.5975 64.08C43.9708 64.2667 44.3442 64.48 44.7175 64.72C45.0908 64.96 45.4375 65.2 45.7575 65.44C46.1042 65.68 46.3575 65.8933 46.5175 66.08C43.5842 68.4533 41.0375 71.5067 38.8775 75.24C36.7442 78.9467 34.9975 83.3333 33.6375 88.4C34.3842 87.0133 35.2242 85.68 36.1575 84.4C37.0908 83.0933 38.0108 81.9467 38.9175 80.96C39.8508 79.9733 40.7308 79.1867 41.5575 78.6C42.4108 78.0133 43.1175 77.72 43.6775 77.72C44.1042 77.8267 44.5175 78.0133 44.9175 78.28C45.3175 78.5467 45.6775 78.88 45.9975 79.28C46.3175 79.6533 46.5842 80.0667 46.7975 80.52C47.0108 80.9467 47.1442 81.4 47.1975 81.88C47.1708 83 46.9708 84.2 46.5975 85.48C46.2508 86.7333 45.7708 87.9733 45.1575 89.2C44.5708 90.4267 43.8908 91.6 43.1175 92.72C42.3708 93.84 41.5708 94.8267 40.7175 95.68C39.8908 96.5067 39.0508 97.1733 38.1975 97.68C37.3708 98.1867 36.5842 98.44 35.8375 98.44C35.5175 98.44 35.1842 98.4 34.8375 98.32C34.5175 98.2667 34.2108 98.1733 33.9175 98.04C33.6508 97.9333 33.4242 97.8133 33.2375 97.68C33.0775 97.5467 32.9975 97.4133 32.9975 97.28ZM59.0647 96.12C58.558 95.6933 58.2114 95.16 58.0247 94.52C57.8647 93.88 57.7847 93.3333 57.7847 92.88C57.7847 92.32 57.8514 91.84 57.9847 91.44C57.878 91.44 57.638 91.6533 57.2647 92.08C56.8914 92.5067 56.478 93.0133 56.0247 93.6C55.598 94.1867 55.1714 94.76 54.7447 95.32C54.318 95.88 53.998 96.2933 53.7847 96.56C53.438 96.9333 53.1047 97.2267 52.7847 97.44C52.4914 97.6533 52.2514 97.7733 52.0647 97.8C51.638 97.7733 51.1847 97.68 50.7047 97.52C50.2514 97.3867 49.8114 97.1867 49.3847 96.92C48.9847 96.6533 48.6247 96.3333 48.3047 95.96C48.0114 95.5867 47.8114 95.16 47.7047 94.68C47.7047 93.9333 47.718 93.32 47.7447 92.84C47.798 92.36 47.8914 91.84 48.0247 91.28C48.2647 90.2667 48.6114 89.12 49.0647 87.84C49.5447 86.56 50.0914 85.3067 50.7047 84.08C51.318 82.8267 51.998 81.6667 52.7447 80.6C53.518 79.5067 54.3314 78.6533 55.1847 78.04C55.4247 78.04 55.7047 78.0667 56.0247 78.12C56.3447 78.1467 56.6647 78.2133 56.9847 78.32C57.3314 78.4267 57.6514 78.56 57.9447 78.72C58.2647 78.8533 58.5314 79.04 58.7447 79.28C58.5047 79.5467 57.8914 80.44 56.9047 81.96C55.9447 83.48 54.8647 85.6667 53.6647 88.52C53.5314 88.8133 53.3714 89.24 53.1847 89.8C52.998 90.36 52.8114 90.9467 52.6247 91.56C52.438 92.1733 52.278 92.7733 52.1447 93.36C52.038 93.9467 51.9847 94.4133 51.9847 94.76C51.9847 94.9733 52.0114 95.1333 52.0647 95.24C52.1447 95.3467 52.2114 95.4267 52.2647 95.48C52.6647 95.32 53.1714 94.88 53.7847 94.16C54.398 93.44 55.2514 92.3333 56.3447 90.84C56.6114 90.4667 56.918 90.04 57.2647 89.56C57.638 89.08 58.0114 88.5733 58.3847 88.04C58.758 87.48 59.1047 86.9067 59.4247 86.32C59.7714 85.7333 60.0514 85.1467 60.2647 84.56C60.3714 84.24 60.5047 83.8667 60.6647 83.44C60.8514 82.9867 61.0647 82.52 61.3047 82.04C61.5714 81.56 61.8647 81.08 62.1847 80.6C62.5314 80.0933 62.9314 79.6267 63.3847 79.2C63.7314 79.2 64.1047 79.24 64.5047 79.32C64.9047 79.4 65.278 79.5067 65.6247 79.64C65.998 79.7467 66.318 79.88 66.5847 80.04C66.8514 80.1733 67.0514 80.32 67.1847 80.48C66.7047 81.6533 66.1714 82.8133 65.5847 83.96C64.998 85.1067 64.4514 86.24 63.9447 87.36C63.438 88.4533 63.0114 89.5467 62.6647 90.64C62.318 91.7333 62.1447 92.8 62.1447 93.84C62.1447 94.4 62.1847 94.8933 62.2647 95.32C62.3714 95.72 62.478 96.0667 62.5847 96.36C62.6914 96.6267 62.7847 96.8533 62.8647 97.04C62.9714 97.2267 63.0247 97.3867 63.0247 97.52C63.0247 97.5467 62.998 97.5867 62.9447 97.64C62.918 97.6667 62.8914 97.68 62.8647 97.68C62.678 97.68 62.438 97.64 62.1447 97.56C61.8514 97.48 61.518 97.36 61.1447 97.2C60.798 97.0667 60.438 96.9067 60.0647 96.72C59.718 96.5333 59.3847 96.3333 59.0647 96.12ZM76.5141 78.32C77.0474 78.32 77.6607 78.48 78.3541 78.8C79.0474 79.12 79.6607 79.5333 80.1941 80.04C80.0607 78.9733 79.8874 77.9733 79.6741 77.04C79.4874 76.08 79.1941 75.0933 78.7941 74.08C78.4207 73.0667 77.9141 71.96 77.2741 70.76C76.6341 69.56 75.8341 68.1867 74.8741 66.64C74.9541 66.4 75.1274 66.12 75.3941 65.8C75.6874 65.48 76.0074 65.1867 76.3541 64.92C76.7274 64.6267 77.1007 64.3733 77.4741 64.16C77.8741 63.9467 78.2474 63.8133 78.5941 63.76C79.3407 64.5867 80.0474 65.6267 80.7141 66.88C81.3807 68.1067 81.9674 69.44 82.4741 70.88C82.9807 72.2933 83.3674 73.76 83.6341 75.28C83.9274 76.8 84.0741 78.2533 84.0741 79.64C84.0741 81.0267 83.9141 82.4533 83.5941 83.92C83.3007 85.3867 82.8741 86.8267 82.3141 88.24C81.7807 89.6267 81.1541 90.9467 80.4341 92.2C79.7141 93.4533 78.9274 94.5733 78.0741 95.56C77.2474 96.5467 76.3807 97.3467 75.4741 97.96C74.5674 98.6 73.6607 99 72.7541 99.16C70.9141 98.9467 69.5007 98.3467 68.5141 97.36C67.5541 96.4 67.0741 95.0667 67.0741 93.36C67.0741 92.4533 67.2074 91.4667 67.4741 90.4C67.7674 89.3333 68.1407 88.28 68.5941 87.24C69.0741 86.1733 69.6207 85.1467 70.2341 84.16C70.8741 83.1467 71.5407 82.24 72.2341 81.44C72.9541 80.64 73.6741 79.96 74.3941 79.4C75.1141 78.84 75.8207 78.48 76.5141 78.32ZM72.4341 97.56C73.3674 97.24 74.3007 96.5333 75.2341 95.44C76.1674 94.3467 77.0074 93.0667 77.7541 91.6C78.5007 90.1067 79.1007 88.52 79.5541 86.84C80.0341 85.1333 80.2741 83.4933 80.2741 81.92C80.2741 81.4667 80.2741 81.1867 80.2741 81.08C80.2741 80.9733 80.2607 80.8667 80.2341 80.76C79.5941 81.0267 78.9141 81.48 78.1941 82.12C77.4741 82.76 76.7541 83.5067 76.0341 84.36C75.3141 85.1867 74.6341 86.0933 73.9941 87.08C73.3541 88.0667 72.7807 89.0533 72.2741 90.04C71.7674 91.0267 71.3674 91.9733 71.0741 92.88C70.7807 93.7867 70.6341 94.5867 70.6341 95.28C70.6341 96.6133 71.2341 97.3733 72.4341 97.56ZM93.8188 78.32C94.3521 78.32 94.9654 78.48 95.6588 78.8C96.3521 79.12 96.9654 79.5333 97.4988 80.04C97.3654 78.9733 97.1921 77.9733 96.9788 77.04C96.7921 76.08 96.4988 75.0933 96.0988 74.08C95.7254 73.0667 95.2188 71.96 94.5788 70.76C93.9388 69.56 93.1388 68.1867 92.1788 66.64C92.2588 66.4 92.4321 66.12 92.6988 65.8C92.9921 65.48 93.3121 65.1867 93.6588 64.92C94.0321 64.6267 94.4054 64.3733 94.7788 64.16C95.1788 63.9467 95.5521 63.8133 95.8988 63.76C96.6454 64.5867 97.3521 65.6267 98.0188 66.88C98.6854 68.1067 99.2721 69.44 99.7788 70.88C100.285 72.2933 100.672 73.76 100.939 75.28C101.232 76.8 101.379 78.2533 101.379 79.64C101.379 81.0267 101.219 82.4533 100.899 83.92C100.605 85.3867 100.179 86.8267 99.6188 88.24C99.0854 89.6267 98.4588 90.9467 97.7388 92.2C97.0188 93.4533 96.2321 94.5733 95.3788 95.56C94.5521 96.5467 93.6854 97.3467 92.7788 97.96C91.8721 98.6 90.9654 99 90.0588 99.16C88.2188 98.9467 86.8054 98.3467 85.8188 97.36C84.8588 96.4 84.3788 95.0667 84.3788 93.36C84.3788 92.4533 84.5121 91.4667 84.7788 90.4C85.0721 89.3333 85.4454 88.28 85.8988 87.24C86.3788 86.1733 86.9254 85.1467 87.5388 84.16C88.1788 83.1467 88.8454 82.24 89.5388 81.44C90.2588 80.64 90.9788 79.96 91.6988 79.4C92.4188 78.84 93.1254 78.48 93.8188 78.32ZM89.7388 97.56C90.6721 97.24 91.6054 96.5333 92.5388 95.44C93.4721 94.3467 94.3121 93.0667 95.0588 91.6C95.8054 90.1067 96.4054 88.52 96.8588 86.84C97.3388 85.1333 97.5788 83.4933 97.5788 81.92C97.5788 81.4667 97.5788 81.1867 97.5788 81.08C97.5788 80.9733 97.5654 80.8667 97.5388 80.76C96.8988 81.0267 96.2188 81.48 95.4988 82.12C94.7788 82.76 94.0588 83.5067 93.3388 84.36C92.6188 85.1867 91.9388 86.0933 91.2988 87.08C90.6588 88.0667 90.0854 89.0533 89.5788 90.04C89.0721 91.0267 88.6721 91.9733 88.3788 92.88C88.0854 93.7867 87.9388 94.5867 87.9388 95.28C87.9388 96.6133 88.5388 97.3733 89.7388 97.56ZM117.443 90.8C116.83 92.7467 116.217 94.52 115.603 96.12C114.99 97.72 114.337 99.1867 113.643 100.52C112.95 101.88 112.203 103.12 111.403 104.24C110.603 105.387 109.723 106.467 108.763 107.48C107.537 108.76 106.27 109.733 104.963 110.4C103.657 111.093 102.35 111.44 101.043 111.44C100.377 111.44 99.7101 111.36 99.0434 111.2C98.4034 111.067 97.8034 110.867 97.2434 110.6C96.6568 110.36 96.1501 110.067 95.7234 109.72C95.2701 109.4 94.9501 109.053 94.7634 108.68C94.7634 108.36 94.9501 108.08 95.3234 107.84C95.6434 108.133 95.9101 108.36 96.1234 108.52C96.3368 108.68 96.5501 108.813 96.7634 108.92C96.9501 109.027 97.1634 109.093 97.4034 109.12C97.6168 109.147 97.8701 109.16 98.1634 109.16C99.6834 109.16 101.163 108.707 102.603 107.8C104.07 106.92 105.443 105.653 106.723 104C108.03 102.373 109.217 100.387 110.283 98.04C111.35 95.72 112.257 93.12 113.003 90.24C112.657 90.7733 112.23 91.4267 111.723 92.2C111.217 92.9733 110.657 93.7467 110.043 94.52C109.43 95.2667 108.79 95.9467 108.123 96.56C107.483 97.1733 106.857 97.5867 106.243 97.8C105.817 97.7733 105.363 97.68 104.883 97.52C104.43 97.3867 103.99 97.1867 103.563 96.92C103.163 96.6533 102.803 96.3333 102.483 95.96C102.163 95.5867 101.95 95.16 101.843 94.68C101.843 93.9067 101.87 93.2933 101.923 92.84C101.977 92.36 102.07 91.84 102.203 91.28C102.443 90.2667 102.79 89.12 103.243 87.84C103.723 86.56 104.27 85.3067 104.883 84.08C105.523 82.8267 106.217 81.6667 106.963 80.6C107.737 79.5067 108.537 78.6533 109.363 78.04C109.577 78.04 109.843 78.0667 110.163 78.12C110.483 78.1467 110.817 78.2133 111.163 78.32C111.51 78.4267 111.843 78.56 112.163 78.72C112.483 78.8533 112.763 79.04 113.003 79.28C112.71 79.5467 112.07 80.44 111.083 81.96C110.097 83.48 109.003 85.6667 107.803 88.52C107.67 88.8133 107.51 89.24 107.323 89.8C107.137 90.36 106.95 90.9467 106.763 91.56C106.603 92.1733 106.457 92.7733 106.323 93.36C106.19 93.9467 106.123 94.4133 106.123 94.76C106.123 94.9733 106.15 95.1333 106.203 95.24C106.283 95.3467 106.35 95.4267 106.403 95.48C106.883 95.4 107.523 95.0133 108.323 94.32C109.123 93.6 110.03 92.4933 111.043 91C111.683 90.04 112.27 89.0933 112.803 88.16C113.337 87.2 113.857 86.24 114.363 85.28C114.897 84.32 115.443 83.3333 116.003 82.32C116.563 81.3067 117.163 80.2667 117.803 79.2C118.15 79.2 118.523 79.24 118.923 79.32C119.323 79.4 119.71 79.5067 120.083 79.64C120.457 79.7467 120.777 79.88 121.043 80.04C121.337 80.1733 121.55 80.32 121.683 80.48C120.857 82.24 120.083 83.96 119.363 85.64C118.643 87.32 118.003 89.04 117.443 90.8Z" fill="#4A4646" />
                                    </g>
                                    <defs>
                                        <filter id="filter0_d_0_1" x="0" y="0" width="140" height="133" filterUnits="userSpaceOnUse" color-interpolation-filters="sRGB">
                                            <feFlood flood-opacity="0" result="BackgroundImageFix" />
                                            <feColorMatrix in="SourceAlpha" type="matrix" values="0 0 0 0 0 0 0 0 0 0 0 0 0 0 0 0 0 0 127 0" result="hardAlpha" />
                                            <feOffset dy="4" />
                                            <feGaussianBlur stdDeviation="2" />
                                            <feComposite in2="hardAlpha" operator="out" />
                                            <feColorMatrix type="matrix" values="0 0 0 0 0 0 0 0 0 0 0 0 0 0 0 0 0 0 0.25 0" />
                                            <feBlend mode="normal" in2="BackgroundImageFix" result="effect1_dropShadow_0_1" />
                                            <feBlend mode="normal" in="SourceGraphic" in2="effect1_dropShadow_0_1" result="shape" />
                                        </filter>
                                        <filter id="filter1_b_0_1" x="25.8375" y="14.72" width="99.8459" height="100.72" filterUnits="userSpaceOnUse" color-interpolation-filters="sRGB">
                                            <feFlood flood-opacity="0" result="BackgroundImageFix" />
                                            <feGaussianBlur in="BackgroundImageFix" stdDeviation="2" />
                                            <feComposite in2="SourceAlpha" operator="in" result="effect1_backgroundBlur_0_1" />
                                            <feBlend mode="normal" in="SourceGraphic" in2="effect1_backgroundBlur_0_1" result="shape" />
                                        </filter>
                                        <linearGradient id="paint0_linear_0_1" x1="70" y1="0" x2="70" y2="125" gradientUnits="userSpaceOnUse">
                                            <stop stop-color="#E685A8" />
                                            <stop offset="0.951732" stop-color="#FCFCFC" stop-opacity="0.56" />
                                        </linearGradient>
                                    </defs>
                                </svg>