<svg width="70" height="67" viewBox="0 0 70 67" fill="none" xmlns="http://www.w3.org/2000/svg">
<g filter="url(#filter0_d_0_1)">
<path d="M66 29.5C66 45.7924 52.1208 59 35 59C17.8792 59 4 45.7924 4 29.5C4 13.2076 17.8792 0 35 0C52.1208 0 66 13.2076 66 29.5Z" fill="url(#paint0_linear_0_1)" shape-rendering="crispEdges"/>
<path d="M65.5 29.5C65.5 45.4932 51.8683 58.5 35 58.5C18.1317 58.5 4.5 45.4932 4.5 29.5C4.5 13.5068 18.1317 0.5 35 0.5C51.8683 0.5 65.5 13.5068 65.5 29.5Z" stroke="#FEFBFB" shape-rendering="crispEdges"/>
</g>
<g filter="url(#filter1_b_0_1)">
<path d="M25.0464 16.516C24.673 16.516 24.3837 16.4133 24.1784 16.208C23.9824 15.9933 23.8844 15.7367 23.8844 15.438C23.8844 15.3633 23.8937 15.2747 23.9124 15.172C23.9404 15.0693 23.973 14.9807 24.0104 14.906C24.1317 14.962 24.309 15.004 24.5424 15.032C24.785 15.0507 25.065 15.06 25.3824 15.06C25.8584 15.06 26.395 15.0413 26.9924 15.004C27.599 14.9573 28.1777 14.9107 28.7284 14.864C29.279 14.8173 29.7644 14.7753 30.1844 14.738C30.6044 14.6913 30.875 14.668 30.9964 14.668C31.3417 14.668 31.589 14.7987 31.7384 15.06C31.897 15.312 32.0137 15.6527 32.0884 16.082C31.8457 16.0633 31.603 16.0493 31.3604 16.04C31.127 16.0213 30.9264 16.012 30.7584 16.012C30.4597 16.012 30.1564 16.0213 29.8484 16.04C29.5497 16.0587 29.2464 16.0867 28.9384 16.124C28.8077 16.3947 28.663 16.7167 28.5044 17.09C28.3457 17.454 28.187 17.8367 28.0284 18.238C27.879 18.6393 27.7344 19.0407 27.5944 19.442C27.4544 19.834 27.333 20.1887 27.2304 20.506C27.025 21.122 26.843 21.6913 26.6844 22.214C26.535 22.7367 26.3997 23.2267 26.2784 23.684C26.1664 24.132 26.0684 24.5613 25.9844 24.972C25.9004 25.3827 25.8257 25.784 25.7604 26.176C25.135 26.0827 24.6124 25.6907 24.1924 25C24.267 24.7107 24.3557 24.398 24.4584 24.062C24.5704 23.7167 24.6964 23.3293 24.8364 22.9C24.9857 22.4613 25.1584 21.9667 25.3544 21.416C25.5504 20.8653 25.7744 20.24 26.0264 19.54C26.1197 19.2787 26.2177 19.008 26.3204 18.728C26.423 18.4387 26.521 18.154 26.6144 17.874C26.717 17.594 26.8057 17.3233 26.8804 17.062C26.9644 16.8007 27.0344 16.5627 27.0904 16.348C26.6984 16.3947 26.325 16.4367 25.9704 16.474C25.625 16.502 25.317 16.516 25.0464 16.516ZM33.6929 19.344C33.7862 19.344 33.8935 19.3627 34.0149 19.4C34.1455 19.428 34.2622 19.47 34.3649 19.526C34.4675 19.5727 34.5515 19.624 34.6169 19.68C34.6915 19.736 34.7289 19.7873 34.7289 19.834C34.5422 20.226 34.3695 20.6227 34.2109 21.024C34.0522 21.416 33.9169 21.794 33.8049 22.158C33.6929 22.522 33.6042 22.8627 33.5389 23.18C33.4829 23.4973 33.4549 23.7727 33.4549 24.006C33.4549 24.2673 33.4829 24.4867 33.5389 24.664C33.5949 24.832 33.6882 24.9533 33.8189 25.028C33.7069 25.1027 33.5622 25.1633 33.3849 25.21C33.2075 25.2567 33.0489 25.28 32.9089 25.28C32.4049 25.28 32.1529 24.9347 32.1529 24.244C32.1529 23.712 32.3302 22.984 32.6849 22.06C32.4982 22.4893 32.2835 22.8953 32.0409 23.278C31.7982 23.6513 31.5509 23.9827 31.2989 24.272C31.0469 24.5613 30.7902 24.7993 30.5289 24.986C30.2769 25.1633 30.0435 25.2707 29.8289 25.308C29.4835 25.2893 29.2035 25.126 28.9889 24.818C28.7742 24.5007 28.6669 24.0993 28.6669 23.614C28.6669 23.0913 28.7789 22.5407 29.0029 21.962C29.2269 21.3833 29.5115 20.8467 29.8569 20.352C30.2115 19.8573 30.5942 19.4467 31.0049 19.12C31.4155 18.784 31.8122 18.6067 32.1949 18.588C32.2882 18.616 32.3909 18.672 32.5029 18.756C32.6242 18.84 32.7362 18.938 32.8389 19.05C32.9509 19.162 33.0442 19.2787 33.1189 19.4C33.1935 19.512 33.2355 19.61 33.2449 19.694C32.8715 19.75 32.4842 19.932 32.0829 20.24C31.6909 20.548 31.3315 20.9213 31.0049 21.36C30.6875 21.7893 30.4262 22.2513 30.2209 22.746C30.0155 23.2407 29.9129 23.7027 29.9129 24.132C29.9129 24.3093 29.9782 24.4213 30.1089 24.468C30.3795 24.412 30.6922 24.1833 31.0469 23.782C31.4015 23.3713 31.8309 22.7413 32.3349 21.892C32.4282 21.724 32.5309 21.5373 32.6429 21.332C32.7642 21.1267 32.8855 20.912 33.0069 20.688C33.1282 20.464 33.2449 20.24 33.3569 20.016C33.4782 19.7827 33.5902 19.5587 33.6929 19.344ZM40.2691 19.428C40.2597 19.6053 40.2271 19.792 40.1711 19.988C40.1244 20.1747 40.0637 20.3473 39.9891 20.506C39.9144 20.6553 39.8351 20.7813 39.7511 20.884C39.6671 20.9867 39.5877 21.038 39.5131 21.038C39.4104 21.0287 39.3497 20.9587 39.3311 20.828C39.3311 20.8 39.3404 20.758 39.3591 20.702C39.3871 20.6367 39.4151 20.5667 39.4431 20.492C39.4711 20.4173 39.4944 20.3427 39.5131 20.268C39.5411 20.1933 39.5551 20.128 39.5551 20.072C39.5551 19.9413 39.5224 19.834 39.4571 19.75C39.4011 19.6567 39.3217 19.61 39.2191 19.61C38.8457 19.61 38.5611 19.8433 38.3651 20.31C38.1691 20.7767 38.0711 21.4627 38.0711 22.368C38.0711 22.4613 38.0757 22.5173 38.0851 22.536C38.2811 22.5267 38.4537 22.522 38.6031 22.522C38.7617 22.5127 38.9157 22.508 39.0651 22.508C39.0744 22.5267 39.0791 22.564 39.0791 22.62C39.0791 22.704 39.0604 22.7647 39.0231 22.802C38.8084 22.8487 38.6357 22.8907 38.5051 22.928C38.3837 22.956 38.2904 22.984 38.2251 23.012C38.1597 23.04 38.1177 23.0727 38.0991 23.11C38.0897 23.138 38.0851 23.18 38.0851 23.236C38.0851 23.3107 38.0851 23.3853 38.0851 23.46C38.0944 23.5347 38.0991 23.628 38.0991 23.74C38.0991 24.524 37.8844 25.154 37.4551 25.63C37.0351 26.106 36.4471 26.3813 35.6911 26.456C35.5604 26.4467 35.4251 26.4093 35.2851 26.344C35.1451 26.2787 35.0097 26.1947 34.8791 26.092C34.7577 25.9893 34.6504 25.8727 34.5571 25.742C34.4637 25.6207 34.3984 25.4947 34.3611 25.364C34.3611 25.0093 34.4357 24.6733 34.5851 24.356C34.7344 24.0293 34.9351 23.7447 35.1871 23.502C35.4484 23.25 35.7517 23.0493 36.0971 22.9C36.4517 22.7413 36.8344 22.648 37.2451 22.62C37.2451 22.3867 37.2217 22.158 37.1751 21.934C37.1284 21.71 37.0771 21.4953 37.0211 21.29C36.9744 21.0753 36.9277 20.87 36.8811 20.674C36.8344 20.4687 36.8111 20.268 36.8111 20.072C36.8111 19.82 36.8624 19.5727 36.9651 19.33C37.0677 19.078 37.2031 18.8493 37.3711 18.644C37.5391 18.4293 37.7351 18.2473 37.9591 18.098C38.1831 17.9487 38.4164 17.846 38.6591 17.79C38.7617 17.818 38.8971 17.902 39.0651 18.042C39.2424 18.1727 39.4151 18.322 39.5831 18.49C39.7511 18.658 39.9004 18.8307 40.0311 19.008C40.1617 19.176 40.2411 19.316 40.2691 19.428ZM35.6491 25.812C35.8731 25.7187 36.0831 25.5833 36.2791 25.406C36.4844 25.2287 36.6617 25.028 36.8111 24.804C36.9604 24.58 37.0771 24.342 37.1611 24.09C37.2544 23.838 37.3011 23.5907 37.3011 23.348C37.1144 23.376 36.9091 23.4647 36.6851 23.614C36.4611 23.754 36.2511 23.9267 36.0551 24.132C35.8591 24.328 35.6957 24.5333 35.5651 24.748C35.4344 24.9627 35.3691 25.1493 35.3691 25.308C35.3691 25.5133 35.4624 25.6813 35.6491 25.812ZM40.3069 23.684C40.3069 23.348 40.3909 22.8813 40.5589 22.284C40.7362 21.6867 40.9649 21.0333 41.2449 20.324C41.5249 19.6147 41.8422 18.882 42.1969 18.126C42.5516 17.37 42.9062 16.6653 43.2609 16.012C43.6249 15.3587 43.9702 14.794 44.2969 14.318C44.6329 13.842 44.9176 13.52 45.1509 13.352C45.2816 13.3613 45.4216 13.4173 45.5709 13.52C45.7296 13.6227 45.8742 13.7487 46.0049 13.898C46.1356 14.038 46.2429 14.1873 46.3269 14.346C46.4202 14.5047 46.4669 14.6493 46.4669 14.78C46.0469 15.116 45.6176 15.55 45.1789 16.082C44.7496 16.6047 44.3389 17.1833 43.9469 17.818C43.5549 18.4433 43.1909 19.1107 42.8549 19.82C42.5282 20.52 42.2529 21.2107 42.0289 21.892C42.3276 21.3787 42.6402 20.912 42.9669 20.492C43.2936 20.072 43.6202 19.7127 43.9469 19.414C44.2736 19.1153 44.5909 18.8867 44.8989 18.728C45.2162 18.56 45.5149 18.4713 45.7949 18.462C46.2056 18.7607 46.4109 19.1573 46.4109 19.652C46.4109 19.9507 46.3502 20.254 46.2289 20.562C46.1076 20.8607 45.9442 21.1407 45.7389 21.402C45.5429 21.654 45.3142 21.8733 45.0529 22.06C44.8009 22.2373 44.5349 22.354 44.2549 22.41C44.3482 22.7367 44.4649 23.068 44.6049 23.404C44.7542 23.74 44.9269 24.0667 45.1229 24.384C45.3282 24.7013 45.5569 24.9953 45.8089 25.266C46.0702 25.5367 46.3642 25.7653 46.6909 25.952C46.6442 26.0453 46.5742 26.1387 46.4809 26.232C46.3876 26.3253 46.2756 26.4047 46.1449 26.47C46.0142 26.5447 45.8696 26.6007 45.7109 26.638C45.5616 26.6847 45.4122 26.708 45.2629 26.708C45.0109 26.708 44.7729 26.582 44.5489 26.33C44.3342 26.078 44.1382 25.714 43.9609 25.238C43.8209 24.8553 43.6856 24.398 43.5549 23.866C43.4242 23.334 43.3076 22.7787 43.2049 22.2C43.3356 22.116 43.4989 21.9947 43.6949 21.836C43.8909 21.668 44.0962 21.4767 44.3109 21.262C45.1322 20.4687 45.5429 19.7827 45.5429 19.204C45.5429 19.1293 45.4916 19.092 45.3889 19.092C45.2022 19.1013 44.9829 19.19 44.7309 19.358C44.4789 19.526 44.2082 19.7593 43.9189 20.058C43.6389 20.3567 43.3496 20.7067 43.0509 21.108C42.7616 21.5093 42.4816 21.9433 42.2109 22.41C42.0989 22.5967 41.9962 22.8113 41.9029 23.054C41.8096 23.2967 41.7256 23.5487 41.6509 23.81C41.5856 24.062 41.5342 24.314 41.4969 24.566C41.4596 24.818 41.4409 25.0513 41.4409 25.266C41.4409 25.3967 41.4549 25.504 41.4829 25.588C41.1936 25.56 41.0162 25.4853 40.9509 25.364C40.8762 25.252 40.8109 25.1587 40.7549 25.084C40.7082 25.0187 40.6569 24.9627 40.6009 24.916C40.5169 24.8507 40.4469 24.7107 40.3909 24.496C40.3349 24.2813 40.3069 24.0107 40.3069 23.684ZM21.5991 43.098C22.0285 42.8087 22.4485 42.44 22.8591 41.992C23.2698 41.5347 23.6431 41.0447 23.9791 40.522C24.3151 39.99 24.5998 39.4393 24.8331 38.87C25.0665 38.3007 25.2251 37.7547 25.3091 37.232C25.3091 37.12 25.2485 37.0453 25.1271 37.008C24.9965 37.008 24.8145 37.1247 24.5811 37.358C24.3571 37.582 24.1051 37.8713 23.8251 38.226C23.5545 38.5807 23.2745 38.9773 22.9851 39.416C22.7051 39.8547 22.4485 40.2933 22.2151 40.732C21.9818 41.1613 21.7811 41.5673 21.6131 41.95C21.4545 42.3233 21.3658 42.6267 21.3471 42.86C21.2538 42.86 21.1745 42.7667 21.1091 42.58C21.0905 42.5333 21.0578 42.4867 21.0111 42.44C20.9645 42.384 20.8898 42.3187 20.7871 42.244C20.7405 42.2067 20.6938 42.1647 20.6471 42.118C20.6005 42.062 20.5678 42.0153 20.5491 41.978C20.5118 41.9033 20.4931 41.782 20.4931 41.614C20.4931 41.0633 20.5631 40.4427 20.7031 39.752C20.8431 39.0613 21.0251 38.3567 21.2491 37.638C21.4825 36.9193 21.7531 36.2147 22.0611 35.524C22.3691 34.824 22.6865 34.1847 23.0131 33.606C23.3491 33.0273 23.6851 32.5373 24.0211 32.136C24.3571 31.7347 24.6745 31.4687 24.9731 31.338C25.0665 31.366 25.1785 31.4127 25.3091 31.478C25.4398 31.5433 25.5705 31.618 25.7011 31.702C25.8318 31.786 25.9531 31.87 26.0651 31.954C26.1865 32.038 26.2751 32.1127 26.3311 32.178C25.3045 33.0087 24.4131 34.0773 23.6571 35.384C22.9105 36.6813 22.2991 38.2167 21.8231 39.99C22.0845 39.5047 22.3785 39.038 22.7051 38.59C23.0318 38.1327 23.3538 37.7313 23.6711 37.386C23.9978 37.0407 24.3058 36.7653 24.5951 36.56C24.8938 36.3547 25.1411 36.252 25.3371 36.252C25.4865 36.2893 25.6311 36.3547 25.7711 36.448C25.9111 36.5413 26.0371 36.658 26.1491 36.798C26.2611 36.9287 26.3545 37.0733 26.4291 37.232C26.5038 37.3813 26.5505 37.54 26.5691 37.708C26.5598 38.1 26.4898 38.52 26.3591 38.968C26.2378 39.4067 26.0698 39.8407 25.8551 40.27C25.6498 40.6993 25.4118 41.11 25.1411 41.502C24.8798 41.894 24.5998 42.2393 24.3011 42.538C24.0118 42.8273 23.7178 43.0607 23.4191 43.238C23.1298 43.4153 22.8545 43.504 22.5931 43.504C22.4811 43.504 22.3645 43.49 22.2431 43.462C22.1311 43.4433 22.0238 43.4107 21.9211 43.364C21.8278 43.3267 21.7485 43.2847 21.6831 43.238C21.6271 43.1913 21.5991 43.1447 21.5991 43.098ZM30.7226 42.692C30.5453 42.5427 30.424 42.356 30.3586 42.132C30.3026 41.908 30.2746 41.7167 30.2746 41.558C30.2746 41.362 30.298 41.194 30.3446 41.054C30.3073 41.054 30.2233 41.1287 30.0926 41.278C29.962 41.4273 29.8173 41.6047 29.6586 41.81C29.5093 42.0153 29.36 42.216 29.2106 42.412C29.0613 42.608 28.9493 42.7527 28.8746 42.846C28.7533 42.9767 28.6366 43.0793 28.5246 43.154C28.422 43.2287 28.338 43.2707 28.2726 43.28C28.1233 43.2707 27.9646 43.238 27.7966 43.182C27.638 43.1353 27.484 43.0653 27.3346 42.972C27.1946 42.8787 27.0686 42.7667 26.9566 42.636C26.854 42.5053 26.784 42.356 26.7466 42.188C26.7466 41.9267 26.7513 41.712 26.7606 41.544C26.7793 41.376 26.812 41.194 26.8586 40.998C26.9426 40.6433 27.064 40.242 27.2226 39.794C27.3906 39.346 27.582 38.9073 27.7966 38.478C28.0113 38.0393 28.2493 37.6333 28.5106 37.26C28.7813 36.8773 29.066 36.5787 29.3646 36.364C29.4486 36.364 29.5466 36.3733 29.6586 36.392C29.7706 36.4013 29.8826 36.4247 29.9946 36.462C30.116 36.4993 30.228 36.546 30.3306 36.602C30.4426 36.6487 30.536 36.714 30.6106 36.798C30.5266 36.8913 30.312 37.204 29.9666 37.736C29.6306 38.268 29.2526 39.0333 28.8326 40.032C28.786 40.1347 28.73 40.284 28.6646 40.48C28.5993 40.676 28.534 40.8813 28.4686 41.096C28.4033 41.3107 28.3473 41.5207 28.3006 41.726C28.2633 41.9313 28.2446 42.0947 28.2446 42.216C28.2446 42.2907 28.254 42.3467 28.2726 42.384C28.3006 42.4213 28.324 42.4493 28.3426 42.468C28.4826 42.412 28.66 42.258 28.8746 42.006C29.0893 41.754 29.388 41.3667 29.7706 40.844C29.864 40.7133 29.9713 40.564 30.0926 40.396C30.2233 40.228 30.354 40.0507 30.4846 39.864C30.6153 39.668 30.7366 39.4673 30.8486 39.262C30.97 39.0567 31.068 38.8513 31.1426 38.646C31.18 38.534 31.2266 38.4033 31.2826 38.254C31.348 38.0953 31.4226 37.932 31.5066 37.764C31.6 37.596 31.7026 37.428 31.8146 37.26C31.936 37.0827 32.076 36.9193 32.2346 36.77C32.356 36.77 32.4866 36.784 32.6266 36.812C32.7666 36.84 32.8973 36.8773 33.0186 36.924C33.1493 36.9613 33.2613 37.008 33.3546 37.064C33.448 37.1107 33.518 37.162 33.5646 37.218C33.3966 37.6287 33.21 38.0347 33.0046 38.436C32.7993 38.8373 32.608 39.234 32.4306 39.626C32.2533 40.0087 32.104 40.3913 31.9826 40.774C31.8613 41.1567 31.8006 41.53 31.8006 41.894C31.8006 42.09 31.8146 42.2627 31.8426 42.412C31.88 42.552 31.9173 42.6733 31.9546 42.776C31.992 42.8693 32.0246 42.9487 32.0526 43.014C32.09 43.0793 32.1086 43.1353 32.1086 43.182C32.1086 43.1913 32.0993 43.2053 32.0806 43.224C32.0713 43.2333 32.062 43.238 32.0526 43.238C31.9873 43.238 31.9033 43.224 31.8006 43.196C31.698 43.168 31.5813 43.126 31.4506 43.07C31.3293 43.0233 31.2033 42.9673 31.0726 42.902C30.9513 42.8367 30.8346 42.7667 30.7226 42.692ZM36.8299 36.462C37.0166 36.462 37.2313 36.518 37.4739 36.63C37.7166 36.742 37.9313 36.8867 38.1179 37.064C38.0713 36.6907 38.0106 36.3407 37.9359 36.014C37.8706 35.678 37.7679 35.3327 37.6279 34.978C37.4973 34.6233 37.3199 34.236 37.0959 33.816C36.8719 33.396 36.5919 32.9153 36.2559 32.374C36.2839 32.29 36.3446 32.192 36.4379 32.08C36.5406 31.968 36.6526 31.8653 36.7739 31.772C36.9046 31.6693 37.0353 31.5807 37.1659 31.506C37.3059 31.4313 37.4366 31.3847 37.5579 31.366C37.8193 31.6553 38.0666 32.0193 38.2999 32.458C38.5333 32.8873 38.7386 33.354 38.9159 33.858C39.0933 34.3527 39.2286 34.866 39.3219 35.398C39.4246 35.93 39.4759 36.4387 39.4759 36.924C39.4759 37.4093 39.4199 37.9087 39.3079 38.422C39.2053 38.9353 39.0559 39.4393 38.8599 39.934C38.6733 40.4193 38.4539 40.8813 38.2019 41.32C37.9499 41.7587 37.6746 42.1507 37.3759 42.496C37.0866 42.8413 36.7833 43.1213 36.4659 43.336C36.1486 43.56 35.8313 43.7 35.5139 43.756C34.8699 43.6813 34.3753 43.4713 34.0299 43.126C33.6939 42.79 33.5259 42.3233 33.5259 41.726C33.5259 41.4087 33.5726 41.0633 33.6659 40.69C33.7686 40.3167 33.8993 39.948 34.0579 39.584C34.2259 39.2107 34.4173 38.8513 34.6319 38.506C34.8559 38.1513 35.0893 37.834 35.3319 37.554C35.5839 37.274 35.8359 37.036 36.0879 36.84C36.3399 36.644 36.5873 36.518 36.8299 36.462ZM35.4019 43.196C35.7286 43.084 36.0553 42.8367 36.3819 42.454C36.7086 42.0713 37.0026 41.6233 37.2639 41.11C37.5253 40.5873 37.7353 40.032 37.8939 39.444C38.0619 38.8467 38.1459 38.2727 38.1459 37.722C38.1459 37.5633 38.1459 37.4653 38.1459 37.428C38.1459 37.3907 38.1413 37.3533 38.1319 37.316C37.9079 37.4093 37.6699 37.568 37.4179 37.792C37.1659 38.016 36.9139 38.2773 36.6619 38.576C36.4099 38.8653 36.1719 39.1827 35.9479 39.528C35.7239 39.8733 35.5233 40.2187 35.3459 40.564C35.1686 40.9093 35.0286 41.2407 34.9259 41.558C34.8233 41.8753 34.7719 42.1553 34.7719 42.398C34.7719 42.8647 34.9819 43.1307 35.4019 43.196ZM42.8866 36.462C43.0732 36.462 43.2879 36.518 43.5306 36.63C43.7732 36.742 43.9879 36.8867 44.1746 37.064C44.1279 36.6907 44.0672 36.3407 43.9926 36.014C43.9272 35.678 43.8246 35.3327 43.6846 34.978C43.5539 34.6233 43.3766 34.236 43.1526 33.816C42.9286 33.396 42.6486 32.9153 42.3126 32.374C42.3406 32.29 42.4012 32.192 42.4946 32.08C42.5972 31.968 42.7092 31.8653 42.8306 31.772C42.9612 31.6693 43.0919 31.5807 43.2226 31.506C43.3626 31.4313 43.4932 31.3847 43.6146 31.366C43.8759 31.6553 44.1232 32.0193 44.3566 32.458C44.5899 32.8873 44.7952 33.354 44.9726 33.858C45.1499 34.3527 45.2852 34.866 45.3786 35.398C45.4812 35.93 45.5326 36.4387 45.5326 36.924C45.5326 37.4093 45.4766 37.9087 45.3646 38.422C45.2619 38.9353 45.1126 39.4393 44.9166 39.934C44.7299 40.4193 44.5106 40.8813 44.2586 41.32C44.0066 41.7587 43.7312 42.1507 43.4326 42.496C43.1432 42.8413 42.8399 43.1213 42.5226 43.336C42.2052 43.56 41.8879 43.7 41.5706 43.756C40.9266 43.6813 40.4319 43.4713 40.0866 43.126C39.7506 42.79 39.5826 42.3233 39.5826 41.726C39.5826 41.4087 39.6292 41.0633 39.7226 40.69C39.8252 40.3167 39.9559 39.948 40.1146 39.584C40.2826 39.2107 40.4739 38.8513 40.6886 38.506C40.9126 38.1513 41.1459 37.834 41.3886 37.554C41.6406 37.274 41.8926 37.036 42.1446 36.84C42.3966 36.644 42.6439 36.518 42.8866 36.462ZM41.4586 43.196C41.7852 43.084 42.1119 42.8367 42.4386 42.454C42.7652 42.0713 43.0592 41.6233 43.3206 41.11C43.5819 40.5873 43.7919 40.032 43.9506 39.444C44.1186 38.8467 44.2026 38.2727 44.2026 37.722C44.2026 37.5633 44.2026 37.4653 44.2026 37.428C44.2026 37.3907 44.1979 37.3533 44.1886 37.316C43.9646 37.4093 43.7266 37.568 43.4746 37.792C43.2226 38.016 42.9706 38.2773 42.7186 38.576C42.4666 38.8653 42.2286 39.1827 42.0046 39.528C41.7806 39.8733 41.5799 40.2187 41.4026 40.564C41.2252 40.9093 41.0852 41.2407 40.9826 41.558C40.8799 41.8753 40.8286 42.1553 40.8286 42.398C40.8286 42.8647 41.0386 43.1307 41.4586 43.196ZM51.1552 40.83C50.9405 41.5113 50.7259 42.132 50.5112 42.692C50.2965 43.252 50.0679 43.7653 49.8252 44.232C49.5825 44.708 49.3212 45.142 49.0412 45.534C48.7612 45.9353 48.4532 46.3133 48.1172 46.668C47.6879 47.116 47.2445 47.4567 46.7872 47.69C46.3299 47.9327 45.8725 48.054 45.4152 48.054C45.1819 48.054 44.9485 48.026 44.7152 47.97C44.4912 47.9233 44.2812 47.8533 44.0852 47.76C43.8799 47.676 43.7025 47.5733 43.5532 47.452C43.3945 47.34 43.2825 47.2187 43.2172 47.088C43.2172 46.976 43.2825 46.878 43.4132 46.794C43.5252 46.8967 43.6185 46.976 43.6932 47.032C43.7679 47.088 43.8425 47.1347 43.9172 47.172C43.9825 47.2093 44.0572 47.2327 44.1412 47.242C44.2159 47.2513 44.3045 47.256 44.4072 47.256C44.9392 47.256 45.4572 47.0973 45.9612 46.78C46.4745 46.472 46.9552 46.0287 47.4032 45.45C47.8605 44.8807 48.2759 44.1853 48.6492 43.364C49.0225 42.552 49.3399 41.642 49.6012 40.634C49.4799 40.8207 49.3305 41.0493 49.1532 41.32C48.9759 41.5907 48.7799 41.8613 48.5652 42.132C48.3505 42.3933 48.1265 42.6313 47.8932 42.846C47.6692 43.0607 47.4499 43.2053 47.2352 43.28C47.0859 43.2707 46.9272 43.238 46.7592 43.182C46.6005 43.1353 46.4465 43.0653 46.2972 42.972C46.1572 42.8787 46.0312 42.7667 45.9192 42.636C45.8072 42.5053 45.7325 42.356 45.6952 42.188C45.6952 41.9173 45.7045 41.7027 45.7232 41.544C45.7419 41.376 45.7745 41.194 45.8212 40.998C45.9052 40.6433 46.0265 40.242 46.1852 39.794C46.3532 39.346 46.5445 38.9073 46.7592 38.478C46.9832 38.0393 47.2259 37.6333 47.4872 37.26C47.7579 36.8773 48.0379 36.5787 48.3272 36.364C48.4019 36.364 48.4952 36.3733 48.6072 36.392C48.7192 36.4013 48.8359 36.4247 48.9572 36.462C49.0785 36.4993 49.1952 36.546 49.3072 36.602C49.4192 36.6487 49.5172 36.714 49.6012 36.798C49.4985 36.8913 49.2745 37.204 48.9292 37.736C48.5839 38.268 48.2012 39.0333 47.7812 40.032C47.7345 40.1347 47.6785 40.284 47.6132 40.48C47.5479 40.676 47.4825 40.8813 47.4172 41.096C47.3612 41.3107 47.3099 41.5207 47.2632 41.726C47.2165 41.9313 47.1932 42.0947 47.1932 42.216C47.1932 42.2907 47.2025 42.3467 47.2212 42.384C47.2492 42.4213 47.2725 42.4493 47.2912 42.468C47.4592 42.44 47.6832 42.3047 47.9632 42.062C48.2432 41.81 48.5605 41.4227 48.9152 40.9C49.1392 40.564 49.3445 40.2327 49.5312 39.906C49.7179 39.57 49.8999 39.234 50.0772 38.898C50.2639 38.562 50.4552 38.2167 50.6512 37.862C50.8472 37.5073 51.0572 37.1433 51.2812 36.77C51.4025 36.77 51.5332 36.784 51.6732 36.812C51.8132 36.84 51.9485 36.8773 52.0792 36.924C52.2099 36.9613 52.3219 37.008 52.4152 37.064C52.5179 37.1107 52.5925 37.162 52.6392 37.218C52.3499 37.834 52.0792 38.436 51.8272 39.024C51.5752 39.612 51.3512 40.214 51.1552 40.83Z" fill="#4A4646"/>
</g>
<defs>
<filter id="filter0_d_0_1" x="0" y="0" width="70" height="67" filterUnits="userSpaceOnUse" color-interpolation-filters="sRGB">
<feFlood flood-opacity="0" result="BackgroundImageFix"/>
<feColorMatrix in="SourceAlpha" type="matrix" values="0 0 0 0 0 0 0 0 0 0 0 0 0 0 0 0 0 0 127 0" result="hardAlpha"/>
<feOffset dy="4"/>
<feGaussianBlur stdDeviation="2"/>
<feComposite in2="hardAlpha" operator="out"/>
<feColorMatrix type="matrix" values="0 0 0 0 0 0 0 0 0 0 0 0 0 0 0 0 0 0 0.25 0"/>
<feBlend mode="normal" in2="BackgroundImageFix" result="effect1_dropShadow_0_1"/>
<feBlend mode="normal" in="SourceGraphic" in2="effect1_dropShadow_0_1" result="shape"/>
</filter>
<filter id="filter1_b_0_1" x="16.4931" y="9.35199" width="40.1461" height="42.702" filterUnits="userSpaceOnUse" color-interpolation-filters="sRGB">
<feFlood flood-opacity="0" result="BackgroundImageFix"/>
<feGaussianBlur in="BackgroundImageFix" stdDeviation="2"/>
<feComposite in2="SourceAlpha" operator="in" result="effect1_backgroundBlur_0_1"/>
<feBlend mode="normal" in="SourceGraphic" in2="effect1_backgroundBlur_0_1" result="shape"/>
</filter>
<linearGradient id="paint0_linear_0_1" x1="35" y1="0" x2="35" y2="59" gradientUnits="userSpaceOnUse">
<stop stop-color="#E685A8"/>
<stop offset="0.951732" stop-color="#FCFCFC" stop-opacity="0.56"/>
</linearGradient>
</defs>
</svg>
