<svg width="171" height="170" viewBox="0 0 171 170" fill="none" xmlns="http://www.w3.org/2000/svg">
<ellipse cx="85.5" cy="85" rx="85.5" ry="85" fill="#E2FBEB"/>
<ellipse cx="85.5" cy="85" rx="58.5" ry="59" fill="#F1F3FA"/>
<path d="M65.7812 82.7578H62.8203V81.2031H65.7812C66.2969 81.2031 66.7135 81.1198 67.0312 80.9531C67.349 80.7865 67.5807 80.5573 67.7266 80.2656C67.8776 79.9688 67.9531 79.6302 67.9531 79.25C67.9531 78.8906 67.8776 78.5547 67.7266 78.2422C67.5807 77.9245 67.349 77.6693 67.0312 77.4766C66.7135 77.2839 66.2969 77.1875 65.7812 77.1875H63.4219V87H61.4609V75.625H65.7812C66.6615 75.625 67.4089 75.7812 68.0234 76.0938C68.6432 76.401 69.1146 76.8281 69.4375 77.375C69.7604 77.9167 69.9219 78.5365 69.9219 79.2344C69.9219 79.9688 69.7604 80.599 69.4375 81.125C69.1146 81.651 68.6432 82.0547 68.0234 82.3359C67.4089 82.6172 66.6615 82.7578 65.7812 82.7578ZM74.0703 86.0781L76.3672 78.5469H78.3828L74.9922 88.2891C74.9141 88.4974 74.8125 88.724 74.6875 88.9688C74.5625 89.2135 74.3984 89.4453 74.1953 89.6641C73.9974 89.888 73.75 90.0677 73.4531 90.2031C73.1562 90.3438 72.7969 90.4141 72.375 90.4141C72.2083 90.4141 72.0469 90.3984 71.8906 90.3672C71.7396 90.3411 71.5964 90.3125 71.4609 90.2812L71.4531 88.8438C71.5052 88.849 71.5677 88.8542 71.6406 88.8594C71.7188 88.8646 71.7812 88.8672 71.8281 88.8672C72.1406 88.8672 72.401 88.8281 72.6094 88.75C72.8177 88.6771 72.987 88.5573 73.1172 88.3906C73.2526 88.224 73.3672 88 73.4609 87.7188L74.0703 86.0781ZM72.7734 78.5469L74.7812 84.875L75.1172 86.8594L73.8125 87.1953L70.7422 78.5469H72.7734ZM83.3359 78.5469V79.9219H78.5703V78.5469H83.3359ZM79.9453 76.4766H81.8281V84.6641C81.8281 84.9245 81.8646 85.125 81.9375 85.2656C82.0156 85.401 82.1224 85.4922 82.2578 85.5391C82.3932 85.5859 82.5521 85.6094 82.7344 85.6094C82.8646 85.6094 82.9896 85.6016 83.1094 85.5859C83.2292 85.5703 83.3255 85.5547 83.3984 85.5391L83.4062 86.9766C83.25 87.0234 83.0677 87.0651 82.8594 87.1016C82.6562 87.138 82.4219 87.1562 82.1562 87.1562C81.724 87.1562 81.3411 87.0807 81.0078 86.9297C80.6745 86.7734 80.4141 86.5208 80.2266 86.1719C80.0391 85.8229 79.9453 85.3594 79.9453 84.7812V76.4766ZM86.6484 75V87H84.7734V75H86.6484ZM86.3203 82.4609L85.7109 82.4531C85.7161 81.8698 85.7969 81.3307 85.9531 80.8359C86.1146 80.3411 86.3385 79.9115 86.625 79.5469C86.9167 79.1771 87.2656 78.8932 87.6719 78.6953C88.0781 78.4922 88.5286 78.3906 89.0234 78.3906C89.4401 78.3906 89.8151 78.4479 90.1484 78.5625C90.487 78.6771 90.7786 78.862 91.0234 79.1172C91.2682 79.3672 91.4531 79.6953 91.5781 80.1016C91.7083 80.5026 91.7734 80.9922 91.7734 81.5703V87H89.8828V81.5547C89.8828 81.1484 89.8229 80.8255 89.7031 80.5859C89.5885 80.3464 89.4193 80.1745 89.1953 80.0703C88.9714 79.9609 88.6979 79.9062 88.375 79.9062C88.0365 79.9062 87.737 79.974 87.4766 80.1094C87.2214 80.2448 87.0078 80.4297 86.8359 80.6641C86.6641 80.8984 86.5339 81.1693 86.4453 81.4766C86.362 81.7839 86.3203 82.112 86.3203 82.4609ZM93.3203 82.8672V82.6875C93.3203 82.0781 93.4089 81.513 93.5859 80.9922C93.763 80.4661 94.0182 80.0104 94.3516 79.625C94.6901 79.2344 95.1016 78.9323 95.5859 78.7188C96.0755 78.5 96.6276 78.3906 97.2422 78.3906C97.862 78.3906 98.4141 78.5 98.8984 78.7188C99.388 78.9323 99.8021 79.2344 100.141 79.625C100.479 80.0104 100.737 80.4661 100.914 80.9922C101.091 81.513 101.18 82.0781 101.18 82.6875V82.8672C101.18 83.4766 101.091 84.0417 100.914 84.5625C100.737 85.0833 100.479 85.5391 100.141 85.9297C99.8021 86.3151 99.3906 86.6172 98.9062 86.8359C98.4219 87.0495 97.8724 87.1562 97.2578 87.1562C96.638 87.1562 96.0833 87.0495 95.5938 86.8359C95.1094 86.6172 94.6979 86.3151 94.3594 85.9297C94.0208 85.5391 93.763 85.0833 93.5859 84.5625C93.4089 84.0417 93.3203 83.4766 93.3203 82.8672ZM95.2031 82.6875V82.8672C95.2031 83.2474 95.2422 83.6068 95.3203 83.9453C95.3984 84.2839 95.5208 84.5807 95.6875 84.8359C95.8542 85.0911 96.0677 85.2917 96.3281 85.4375C96.5885 85.5833 96.8984 85.6562 97.2578 85.6562C97.6068 85.6562 97.9089 85.5833 98.1641 85.4375C98.4245 85.2917 98.638 85.0911 98.8047 84.8359C98.9714 84.5807 99.0938 84.2839 99.1719 83.9453C99.2552 83.6068 99.2969 83.2474 99.2969 82.8672V82.6875C99.2969 82.3125 99.2552 81.9583 99.1719 81.625C99.0938 81.2865 98.9688 80.987 98.7969 80.7266C98.6302 80.4661 98.4167 80.263 98.1562 80.1172C97.901 79.9661 97.5964 79.8906 97.2422 79.8906C96.888 79.8906 96.5807 79.9661 96.3203 80.1172C96.0651 80.263 95.8542 80.4661 95.6875 80.7266C95.5208 80.987 95.3984 81.2865 95.3203 81.625C95.2422 81.9583 95.2031 82.3125 95.2031 82.6875ZM104.625 80.3516V87H102.742V78.5469H104.516L104.625 80.3516ZM104.289 82.4609L103.68 82.4531C103.685 81.8542 103.768 81.3047 103.93 80.8047C104.096 80.3047 104.326 79.875 104.617 79.5156C104.914 79.1562 105.268 78.8802 105.68 78.6875C106.091 78.4896 106.549 78.3906 107.055 78.3906C107.461 78.3906 107.828 78.4479 108.156 78.5625C108.49 78.6719 108.773 78.8516 109.008 79.1016C109.247 79.3516 109.43 79.6771 109.555 80.0781C109.68 80.474 109.742 80.9609 109.742 81.5391V87H107.852V81.5312C107.852 81.125 107.792 80.8047 107.672 80.5703C107.557 80.3307 107.388 80.1615 107.164 80.0625C106.945 79.9583 106.672 79.9062 106.344 79.9062C106.021 79.9062 105.732 79.974 105.477 80.1094C105.221 80.2448 105.005 80.4297 104.828 80.6641C104.656 80.8984 104.523 81.1693 104.43 81.4766C104.336 81.7839 104.289 82.112 104.289 82.4609Z" fill="#4A4646"/>
</svg>
