<svg width="25" height="25"  viewBox="0 0 35 32" fill="none" xmlns="http://www.w3.org/2000/svg">
                                    <path d="M34.8576 5.02622C34.7157 4.67524 34.4753 4.37525 34.1669 4.16421C33.8584 3.95317 33.4958 3.84056 33.1249 3.84065H28.722C27.982 2.6742 26.9719 1.71323 25.7814 1.04327C24.591 0.373322 23.2573 0.015181 21.8991 0.000733336C20.8394 -0.0138377 19.7875 0.188865 18.8054 0.596908C17.8234 1.00495 16.9309 1.61008 16.1807 2.37668C15.4092 3.15152 14.7969 4.07653 14.3796 5.09729C13.9624 6.11806 13.7487 7.21397 13.7512 8.32054V8.44534C7.99691 6.59418 3.38004 1.90149 3.33004 1.84869C3.07847 1.58907 2.75973 1.40844 2.41131 1.32805C2.06289 1.24765 1.6993 1.27084 1.36331 1.39489C1.02733 1.51893 0.732932 1.73867 0.514766 2.02825C0.2966 2.31782 0.163741 2.66519 0.131822 3.02946C-0.854047 14.2564 3.98312 20.2755 6.70325 22.7282C4.43934 25.093 1.25206 26.3489 1.22081 26.3617C0.955804 26.4627 0.716544 26.6238 0.52094 26.833C0.325337 27.0421 0.178456 27.2938 0.0912932 27.5692C0.00413057 27.8447 -0.0210559 28.1368 0.0176191 28.4237C0.0562941 28.7105 0.157829 28.9847 0.314622 29.2257C0.627101 29.6881 2.41448 32 8.12659 32C19.4149 32 28.8595 23.1586 29.9376 11.7397L34.4498 7.11897C34.7123 6.85058 34.8912 6.50848 34.9638 6.13596C35.0363 5.76343 34.9994 5.37723 34.8576 5.02622ZM26.8003 9.52372C26.4771 9.85326 26.2831 10.2927 26.255 10.7589C25.6473 20.5171 17.6853 28.1601 8.12659 28.1601C7.47405 28.164 6.82202 28.1217 6.17516 28.0337C7.81411 26.9681 9.64523 25.4513 10.9389 23.4658C11.0804 23.2484 11.1771 23.0038 11.2231 22.7468C11.2691 22.4899 11.2634 22.226 11.2064 21.9714C11.1493 21.7168 11.0421 21.4768 10.8914 21.266C10.7406 21.0553 10.5494 20.8783 10.3296 20.7459C10.3108 20.7347 8.40313 19.5475 6.66887 16.8387C4.93462 14.13 3.97218 10.9189 3.7847 7.27417C6.46576 9.34452 10.6264 11.9669 15.3136 12.7748C15.5825 12.8214 15.8582 12.8073 16.1212 12.7335C16.3843 12.6598 16.6285 12.5281 16.8368 12.3477C17.045 12.1674 17.2124 11.9426 17.3271 11.6892C17.4418 11.4358 17.5011 11.1598 17.5009 10.8805V8.32054C17.4996 7.72259 17.6152 7.13041 17.8408 6.57892C18.0665 6.02742 18.3977 5.52777 18.8149 5.10942C19.2134 4.70127 19.6874 4.37878 20.2093 4.1609C20.7311 3.94302 21.2902 3.83413 21.8538 3.84065C22.7057 3.85233 23.537 4.11123 24.2511 4.58729C24.9651 5.06336 25.5327 5.73706 25.8879 6.53018C26.034 6.87232 26.2745 7.16338 26.5797 7.3677C26.885 7.57203 27.2418 7.68075 27.6065 7.68056H28.5939L26.8003 9.52372Z" fill="#4A4646" />
                                </svg>