<svg width="170" height="170" viewBox="0 0 170 170" fill="none" xmlns="http://www.w3.org/2000/svg">
<path d="M170 85C170 131.944 131.944 170 85 170C38.0558 170 0 131.944 0 85C0 38.0558 38.0558 0 85 0C131.944 0 170 38.0558 170 85Z" fill="#FDE9E2"/>
<circle cx="85.5" cy="84.5" r="58.5" fill="#F1F3FA"/>
<path d="M83.75 75.625H85.7031V83.2266C85.7031 84.0911 85.5156 84.8151 85.1406 85.3984C84.7656 85.9818 84.2552 86.4219 83.6094 86.7188C82.9688 87.0104 82.2526 87.1562 81.4609 87.1562C80.6432 87.1562 79.9141 87.0104 79.2734 86.7188C78.6328 86.4219 78.1276 85.9818 77.7578 85.3984C77.3932 84.8151 77.2109 84.0911 77.2109 83.2266V75.625H79.1641V83.2266C79.1641 83.7734 79.2578 84.224 79.4453 84.5781C79.6328 84.9271 79.8984 85.1849 80.2422 85.3516C80.5859 85.5182 80.9922 85.6016 81.4609 85.6016C81.9297 85.6016 82.3333 85.5182 82.6719 85.3516C83.0156 85.1849 83.2812 84.9271 83.4688 84.5781C83.6562 84.224 83.75 83.7734 83.75 83.2266V75.625ZM89.3281 75.625L91.7422 79.7734L94.1562 75.625H96.4141L92.9766 81.2578L96.5 87H94.2188L91.7422 82.7734L89.2656 87H86.9766L90.5078 81.2578L87.0625 75.625H89.3281Z" fill="#4A4646"/>
</svg>
