<svg width="57" height="57" viewBox="0 0 57 57" fill="none" xmlns="http://www.w3.org/2000/svg">
<path d="M22.5625 34.4375L22.5625 27.3125" stroke="#4A4646" stroke-linecap="round"/>
<path d="M34.4375 34.4375L34.4375 27.3125" stroke="#4A4646" stroke-linecap="round"/>
<path d="M7.125 15.4375H49.875H45.5625C43.6769 15.4375 42.7341 15.4375 42.1483 16.0233C41.5625 16.6091 41.5625 17.5519 41.5625 19.4375V42.3125C41.5625 44.1981 41.5625 45.1409 40.9767 45.7267C40.3909 46.3125 39.4481 46.3125 37.5625 46.3125H19.4375C17.5519 46.3125 16.6091 46.3125 16.0233 45.7267C15.4375 45.1409 15.4375 44.1981 15.4375 42.3125V19.4375C15.4375 17.5519 15.4375 16.6091 14.8517 16.0233C14.2659 15.4375 13.3231 15.4375 11.4375 15.4375H7.125Z" stroke="#4A4646" stroke-linecap="round"/>
<path d="M22.5625 8.31307C22.5625 8.31307 23.75 5.9375 28.5 5.9375C33.25 5.9375 34.4375 8.3125 34.4375 8.3125" stroke="#4A4646" stroke-linecap="round"/>
</svg>
